<svg width="315" height="83" viewBox="0 0 332 116" fill="none" xmlns="http://www.w3.org/2000/svg">
  <path
    d="M6.35353 66.5C1.35803 50.9584 8.35329 17 18.2593 0C18.7325 6.10395 0.905527 42.2719 21.7251 70.1309C34.1976 86.8206 43.859 76.4957 44.7528 70.1309C48.2178 79.6276 42.0176 84.7292 37.079 86.0951C21.7251 90.3418 10.8535 80.5 6.35353 66.5Z"
    fill="url(#paint0_diamond)" />
  <path
    d="M25.8255 34.8253C22.7195 34.655 18.491 33.1217 25.2317 28.2019C29.6743 24.6116 46.2551 19.2874 56.7596 28.2019C67.2642 37.1165 67 45.6121 67 50.9999C67 59.2931 64.7596 68 56.7596 76.5C48.1969 85.5979 38.8618 87.4724 35.3844 87.4999C36.9709 87.4874 50.9453 82.7858 55 68.9999C57.2059 61.4999 58.5 52.4999 48.1969 49.6501L48.1419 49.6349C45.08 48.7876 37.8956 46.7996 31.3371 54.8565C29.9448 55.8165 27.1687 57.0791 27.202 54.4486C27.2354 51.8182 32.6708 48.1424 35.3844 46.6333L31.5092 46.9352C33.3515 44.9725 37.5977 41.3348 40.6952 41.4632C37.2774 41.1648 30.1049 42.8172 24.2251 51.7607C23.0888 53.2685 20.6602 55.8585 20.0366 54.1551C19.4129 52.4518 19.8911 51.49 20.2082 51.2219C21.1535 50.175 23.168 48.1932 23.6642 48.6412C24.2844 49.2012 22.2762 46.4378 24.6453 44.0634C26.5405 42.1638 23.9147 43.9581 22.365 45.0926C20.4587 46.5388 16.6783 48.7474 16.8061 46.0122C16.934 43.2771 19.0258 40.8107 20.0557 39.9195C21.715 38.2337 24.9735 35.0822 25.8255 34.8253Z"
    fill="url(#paint1_linear)" />
  <path
    d="M92.0942 85.3367C89.4904 85.3367 86.5499 85.1122 83.2727 84.6633C81.477 84.4388 80.2424 83.9675 79.569 83.2492C78.8956 82.5309 78.6038 81.3636 78.6936 79.7475C79.0078 75.303 79.7486 69.8261 80.9158 63.3165C82.083 56.7621 83.4972 50.4546 85.1582 44.394C85.4725 43.2716 86.101 42.486 87.0437 42.0371C87.9865 41.5881 89.2211 41.3637 90.7474 41.3637C93.4859 41.3637 94.8552 42.1269 94.8552 43.6532C94.8552 44.2817 94.7205 45 94.4511 45.8081C93.2839 49.3996 92.1167 54.2256 90.9495 60.2862C89.7822 66.3019 88.9517 72.0483 88.4579 77.5253C89.8047 77.6599 91.331 77.7273 93.037 77.7273C100.893 77.7273 106.752 75.3479 110.613 70.5892C114.518 65.8305 116.471 59.4781 116.471 51.532C116.471 46.1897 114.945 42.0595 111.892 39.1415C108.839 36.2234 104.53 34.7644 98.9629 34.7644C95.3714 34.7644 91.8024 35.3255 88.2559 36.4479C84.7542 37.5702 81.5892 39.0517 78.7609 40.8923C78.1773 41.2963 77.5488 41.4984 76.8754 41.4984C76.1122 41.4984 75.5061 41.1841 75.0572 40.5556C74.6083 39.8822 74.3838 39.0741 74.3838 38.1314C74.3838 37.0539 74.5634 36.1785 74.9225 35.5051C75.2817 34.7868 75.8877 34.1359 76.7407 33.5522C79.8384 31.4423 83.4747 29.8485 87.6498 28.7711C91.8249 27.6488 95.8428 27.0876 99.7037 27.0876C105.181 27.0876 109.917 28.0528 113.912 29.9832C117.908 31.8687 120.983 34.6521 123.138 38.3334C125.293 42.0146 126.37 46.4591 126.37 51.6667C126.37 58.4456 125.023 64.3715 122.33 69.4445C119.636 74.4725 115.708 78.3782 110.545 81.1616C105.383 83.945 99.2323 85.3367 92.0942 85.3367ZM160.912 69.9832C161.495 69.9832 161.944 70.2525 162.258 70.7913C162.617 71.33 162.797 72.0707 162.797 73.0135C162.797 74.8092 162.371 76.2009 161.518 77.1886C159.857 79.2088 157.5 81.0718 154.447 82.7778C151.439 84.4837 148.207 85.3367 144.75 85.3367C140.036 85.3367 136.377 84.0572 133.773 81.4983C131.17 78.9394 129.868 75.4377 129.868 70.9933C129.868 67.8956 130.519 65.0225 131.821 62.3738C133.123 59.6802 134.918 57.5477 137.208 55.9765C139.542 54.4052 142.169 53.6196 145.087 53.6196C147.69 53.6196 149.778 54.4052 151.349 55.9765C152.92 57.5028 153.706 59.5904 153.706 62.2391C153.706 65.3367 152.584 68.0079 150.339 70.2525C148.139 72.4523 144.391 74.2032 139.093 75.5051C140.216 77.5702 142.348 78.6027 145.491 78.6027C147.511 78.6027 149.8 77.9069 152.359 76.5152C154.963 75.0786 157.208 73.2155 159.093 70.9259C159.632 70.2974 160.238 69.9832 160.912 69.9832ZM143.942 60.2189C142.281 60.2189 140.867 61.1841 139.699 63.1145C138.577 65.0449 138.016 67.3794 138.016 70.1179V70.2525C140.665 69.624 142.752 68.6813 144.279 67.4243C145.805 66.1672 146.568 64.7082 146.568 63.0472C146.568 62.1942 146.321 61.5208 145.827 61.027C145.378 60.4882 144.75 60.2189 143.942 60.2189ZM169.839 86.8182C167.505 86.8182 165.709 86.2795 164.452 85.202C163.24 84.1246 162.634 82.9125 162.634 81.5657C162.634 80.3984 163.06 79.3883 163.913 78.5354C164.766 77.6824 166.023 77.2559 167.684 77.2559C168.268 77.2559 168.941 77.3232 169.705 77.4579C170.513 77.5477 171.119 77.615 171.523 77.6599C171.478 76.4927 171.209 75.3928 170.715 74.3603C170.266 73.3277 169.682 72.3401 168.964 71.3973C168.246 70.4097 167.572 69.5567 166.944 68.8384C165.552 71.4871 164.16 73.6869 162.769 75.4377C161.422 77.1886 159.94 78.8496 158.324 80.4209C157.516 81.229 156.663 81.633 155.765 81.633C155.047 81.633 154.463 81.3861 154.014 80.8923C153.565 80.3535 153.341 79.7026 153.341 78.9394C153.341 78.0415 153.655 77.211 154.284 76.4478L155.159 75.3704C157.628 72.3176 159.491 69.8036 160.748 67.8283C161.512 66.5264 162.409 64.798 163.442 62.6431C164.475 60.4433 165.485 58.1762 166.472 55.8418C167.325 53.8665 169.099 52.8788 171.792 52.8788C173.049 52.8788 173.925 52.9911 174.418 53.2155C174.912 53.44 175.159 53.7991 175.159 54.293C175.159 54.5623 175.069 54.9888 174.89 55.5724C174.71 56.156 174.463 56.7396 174.149 57.3233C173.341 58.9394 172.937 60.3087 172.937 61.431C172.937 62.1044 173.161 62.8451 173.61 63.6532C174.104 64.4613 174.845 65.4714 175.833 66.6835C177.269 68.569 178.347 70.1852 179.065 71.532C179.828 72.8339 180.21 74.2705 180.21 75.8418C180.21 76.2907 180.165 76.9192 180.075 77.7273C182.275 76.8743 184.856 74.6072 187.819 70.9259C188.358 70.2974 188.964 69.9832 189.637 69.9832C190.221 69.9832 190.67 70.2525 190.984 70.7913C191.343 71.33 191.523 72.0707 191.523 73.0135C191.523 74.7194 191.096 76.1111 190.243 77.1886C187.999 79.9719 185.844 81.8799 183.779 82.9125C181.758 83.9001 179.244 84.4388 176.237 84.5286C174.441 86.055 172.308 86.8182 169.839 86.8182ZM194.873 49.1751C192.988 49.1751 191.574 48.7486 190.631 47.8957C189.688 46.9978 189.217 45.7632 189.217 44.192C189.217 42.6207 189.823 41.3188 191.035 40.2862C192.292 39.2088 193.841 38.6701 195.682 38.6701C197.343 38.6701 198.689 39.0741 199.722 39.8822C200.755 40.6903 201.271 41.8351 201.271 43.3165C201.271 45.1123 200.687 46.5489 199.52 47.6263C198.353 48.6588 196.804 49.1751 194.873 49.1751ZM194.335 85.3367C191.417 85.3367 189.284 84.3042 187.937 82.2391C186.636 80.174 185.985 77.4355 185.985 74.0236C185.985 72.0034 186.232 69.422 186.725 66.2795C187.264 63.0921 187.937 60.1291 188.746 57.3906C189.15 55.954 189.688 54.9664 190.362 54.4276C191.035 53.8889 192.113 53.6196 193.594 53.6196C195.884 53.6196 197.028 54.3827 197.028 55.9091C197.028 57.0315 196.602 59.6353 195.749 63.7206C194.671 68.6588 194.133 72.0034 194.133 73.7542C194.133 75.101 194.312 76.1336 194.671 76.8519C195.031 77.5702 195.637 77.9293 196.49 77.9293C197.298 77.9293 198.308 77.3681 199.52 76.2458C200.732 75.1235 202.348 73.3502 204.368 70.9259C204.907 70.2974 205.513 69.9832 206.187 69.9832C206.77 69.9832 207.219 70.2525 207.533 70.7913C207.893 71.33 208.072 72.0707 208.072 73.0135C208.072 74.8092 207.646 76.2009 206.793 77.1886C202.348 82.6207 198.196 85.3367 194.335 85.3367ZM237.102 70.1179C237.686 70.1179 238.135 70.4097 238.449 70.9933C238.808 71.532 238.987 72.2278 238.987 73.0808C238.987 74.1134 238.83 74.9214 238.516 75.5051C238.202 76.0887 237.708 76.6049 237.035 77.0539C233.174 79.6577 230.346 81.5881 228.55 82.8451L224.24 85.7407C222.534 95.0337 220.289 102.329 217.506 107.626C214.768 112.969 211.266 115.64 207.001 115.64C204.711 115.64 202.848 114.921 201.412 113.485C199.975 112.093 199.257 110.252 199.257 107.963C199.257 104.776 200.514 101.341 203.028 97.6599C205.542 94.0236 210.256 89.5342 217.169 84.1919L217.573 81.5657C216.81 82.7778 215.8 83.7205 214.543 84.3939C213.331 85.0224 212.119 85.3367 210.907 85.3367C208.123 85.3367 205.901 84.3266 204.24 82.3064C202.579 80.2862 201.748 77.6375 201.748 74.3603C201.748 70.7688 202.579 67.3794 204.24 64.1919C205.901 60.9596 208.101 58.3783 210.839 56.4478C213.623 54.4725 216.563 53.4849 219.661 53.4849C220.649 53.4849 221.3 53.6869 221.614 54.0909C221.973 54.4501 222.265 55.1235 222.489 56.1111C223.342 55.9316 224.33 55.8418 225.452 55.8418C226.574 55.8418 227.36 56.0214 227.809 56.3805C228.303 56.6948 228.55 57.3457 228.55 58.3334C228.55 58.8721 228.527 59.2986 228.482 59.6128C228.303 61.0045 227.742 64.5286 226.799 70.1852C226.619 71.2626 226.417 72.4523 226.193 73.7542C226.013 75.0112 225.811 76.358 225.587 77.7946C229.044 75.101 232.366 72.7217 235.553 70.6566C236.137 70.2974 236.653 70.1179 237.102 70.1179ZM213.331 78.5354C214.363 78.5354 215.351 77.9069 216.294 76.6498C217.237 75.3928 217.91 73.5971 218.314 71.2626L220.469 59.7475C218.628 59.7924 216.922 60.5107 215.351 61.9024C213.78 63.2492 212.523 65.0449 211.58 67.2896C210.637 69.5342 210.166 71.9136 210.166 74.4276C210.166 75.8193 210.435 76.8519 210.974 77.5253C211.558 78.1987 212.343 78.5354 213.331 78.5354ZM207.742 109.108C208.864 109.108 210.121 107.761 211.513 105.067C212.949 102.374 214.319 98.0864 215.621 92.2054C212.164 95.1683 209.672 97.8395 208.146 100.219C206.619 102.598 205.856 104.686 205.856 106.481C205.856 107.245 205.991 107.873 206.26 108.367C206.575 108.861 207.068 109.108 207.742 109.108ZM238.905 85.3367C237.199 85.3367 235.987 84.4388 235.269 82.6431C234.595 80.8474 234.258 77.9742 234.258 74.0236C234.258 68.1874 235.089 62.6431 236.75 57.3906C237.154 56.0887 237.805 55.1459 238.703 54.5623C239.646 53.9338 240.948 53.6196 242.609 53.6196C243.506 53.6196 244.135 53.7318 244.494 53.9563C244.853 54.1807 245.033 54.6072 245.033 55.2357C245.033 55.954 244.696 57.5702 244.023 60.0842C243.574 61.8799 243.215 63.4512 242.945 64.798C242.676 66.1448 242.451 67.8059 242.272 69.7812C243.753 65.9203 245.414 62.7778 247.255 60.3536C249.096 57.9293 250.891 56.2009 252.642 55.1684C254.438 54.1358 256.077 53.6196 257.558 53.6196C260.476 53.6196 261.935 55.0786 261.935 57.9967C261.935 59.7475 261.441 62.9125 260.454 67.4916C259.601 71.3973 259.174 73.9787 259.174 75.2357C259.174 77.0314 259.825 77.9293 261.127 77.9293C262.025 77.9293 263.08 77.3906 264.292 76.3131C265.549 75.1908 267.21 73.3951 269.275 70.9259C269.814 70.2974 270.42 69.9832 271.093 69.9832C271.677 69.9832 272.126 70.2525 272.44 70.7913C272.799 71.33 272.979 72.0707 272.979 73.0135C272.979 74.8092 272.552 76.2009 271.699 77.1886C269.769 79.5679 267.682 81.5208 265.437 83.0471C263.237 84.5735 260.723 85.3367 257.895 85.3367C255.605 85.3367 253.877 84.6857 252.71 83.3838C251.542 82.037 250.959 80.1066 250.959 77.5926C250.959 76.3356 251.273 74.0909 251.902 70.8586C252.485 68.0303 252.777 66.0775 252.777 65C252.777 64.2817 252.53 63.9226 252.036 63.9226C251.453 63.9226 250.622 64.6858 249.545 66.2121C248.512 67.6936 247.435 69.6689 246.312 72.1381C245.235 74.6072 244.359 77.211 243.686 79.9495C243.192 82.0595 242.609 83.4961 241.935 84.2593C241.307 84.9776 240.297 85.3367 238.905 85.3367ZM297.564 69.9832C298.148 69.9832 298.597 70.2525 298.911 70.7913C299.27 71.33 299.45 72.0707 299.45 73.0135C299.45 74.8092 299.023 76.2009 298.17 77.1886C296.509 79.2088 294.152 81.0718 291.1 82.7778C288.092 84.4837 284.86 85.3367 281.403 85.3367C276.689 85.3367 273.03 84.0572 270.426 81.4983C267.823 78.9394 266.521 75.4377 266.521 70.9933C266.521 67.8956 267.172 65.0225 268.473 62.3738C269.775 59.6802 271.571 57.5477 273.861 55.9765C276.195 54.4052 278.821 53.6196 281.739 53.6196C284.343 53.6196 286.431 54.4052 288.002 55.9765C289.573 57.5028 290.359 59.5904 290.359 62.2391C290.359 65.3367 289.237 68.0079 286.992 70.2525C284.792 72.4523 281.044 74.2032 275.746 75.5051C276.869 77.5702 279.001 78.6027 282.143 78.6027C284.164 78.6027 286.453 77.9069 289.012 76.5152C291.616 75.0786 293.861 73.2155 295.746 70.9259C296.285 70.2974 296.891 69.9832 297.564 69.9832ZM280.595 60.2189C278.934 60.2189 277.519 61.1841 276.352 63.1145C275.23 65.0449 274.669 67.3794 274.669 70.1179V70.2525C277.317 69.624 279.405 68.6813 280.931 67.4243C282.458 66.1672 283.221 64.7082 283.221 63.0472C283.221 62.1942 282.974 61.5208 282.48 61.027C282.031 60.4882 281.403 60.2189 280.595 60.2189ZM318.15 69.9832C318.644 73.6644 319.362 77.3008 320.305 80.8923C320.484 81.4759 320.574 82.0819 320.574 82.7104C320.574 84.7306 319.34 85.7407 316.87 85.7407C315.479 85.7407 314.401 85.3591 313.638 84.596C312.92 83.8328 312.246 82.3962 311.618 80.2862L311.551 80.0168C309.845 82.1268 308.296 83.541 306.904 84.2593C305.557 84.9776 303.986 85.3367 302.19 85.3367C299.452 85.3367 297.185 84.3266 295.389 82.3064C293.638 80.2413 292.763 77.5702 292.763 74.2929C292.763 70.7015 293.526 67.3794 295.052 64.3266C296.579 61.2739 298.666 58.7823 301.315 56.8519C303.964 54.8766 306.927 53.6869 310.204 53.2829C311.057 44.798 312.673 37.4131 315.052 31.128C317.476 24.8429 320.686 21.7004 324.682 21.7004C326.612 21.7004 328.206 22.5758 329.463 24.3267C330.765 26.0775 331.416 28.7262 331.416 32.2728C331.416 37.211 330.204 42.9798 327.779 49.5792C325.355 56.1785 322.145 62.9798 318.15 69.9832ZM323.941 28.2997C322.639 28.2997 321.405 31.6218 320.237 38.266C319.115 44.9103 318.352 52.1381 317.948 59.9495C322.931 49.1751 325.423 40.4209 325.423 33.6869C325.423 31.981 325.265 30.6566 324.951 29.7139C324.682 28.7711 324.345 28.2997 323.941 28.2997ZM304.547 78.5354C305.445 78.5354 306.298 78.1987 307.106 77.5253C307.959 76.8519 309.037 75.55 310.338 73.6195C309.889 70.3423 309.665 66.9529 309.665 63.4512C309.665 62.0595 309.687 60.9821 309.732 60.2189C307.263 60.9372 305.221 62.5758 303.604 65.1347C301.988 67.6936 301.18 70.5219 301.18 73.6195C301.18 76.8968 302.303 78.5354 304.547 78.5354Z"
    fill="url(#paint2_diamond)" />
  <defs>
    <radialGradient id="paint0_diamond" cx="0" cy="0" r="1" gradientUnits="userSpaceOnUse"
      gradientTransform="translate(8.05466 13.9256) rotate(64.5408) scale(87.7129 94.8775)">
      <stop stop-color="#00E0FF" />
      <stop offset="0.2" stop-color="#0EC9EC" />
      <stop offset="0.4" stop-color="#15B3D9" />
      <stop offset="0.6" stop-color="#189EC6" />
      <stop offset="0.8" stop-color="#1889B3" />
      <stop offset="1" stop-color="#1774A1" />
    </radialGradient>
    <linearGradient id="paint1_linear" x1="17.2098" y1="36.4913" x2="60.9878" y2="76.0189"
      gradientUnits="userSpaceOnUse">
      <stop stop-color="white" />
      <stop offset="0.0989583" stop-color="#E1F9FF" />
      <stop offset="0.197917" stop-color="#C0F3FF" />
      <stop offset="0.296875" stop-color="#9BEDFF" />
      <stop offset="0.395833" stop-color="#6DE7FF" />
      <stop offset="0.494792" stop-color="#00E0FF" />
      <stop offset="0.494792" stop-color="#00E0FF" />
      <stop offset="0.595833" stop-color="#18C2E5" />
      <stop offset="0.696875" stop-color="#20A4CC" />
      <stop offset="0.797917" stop-color="#2288B4" />
      <stop offset="0.898958" stop-color="#216C9B" />
      <stop offset="1" stop-color="#1D5284" />
    </linearGradient>
    <radialGradient id="paint2_diamond" cx="0" cy="0" r="1" gradientUnits="userSpaceOnUse"
      gradientTransform="translate(118.791 15.7751) rotate(22.099) scale(400.642 456.744)">
      <stop stop-color="#26E5FF" />
      <stop offset="0.2" stop-color="#26CCEA" />
      <stop offset="0.4" stop-color="#24B3D6" />
    </radialGradient>
  </defs>
</svg>