<svg width="315" height="83" viewBox="0 0 315 83" fill="none" xmlns="http://www.w3.org/2000/svg">
<g filter="url(#filter0_d)">
<path d="M8.0382 44.1737C4.86309 34.2955 9.30923 12.7118 15.6054 1.90674C15.9062 5.78637 4.57548 28.7744 17.8083 46.4815C25.7357 57.0893 31.8764 50.5269 32.4445 46.4815C34.6468 52.5175 30.706 55.76 27.5671 56.6282C17.8083 59.3274 10.8984 53.072 8.0382 44.1737Z" fill="url(#paint0_diamond)"/>
<path d="M20.4145 24.0415C18.4404 23.9332 15.7527 22.9587 20.0371 19.8317C22.8608 17.5497 33.3994 14.1657 40.076 19.8317C46.7526 25.4977 46.5847 30.8975 46.5847 34.322C46.5847 39.593 45.1608 45.1271 40.076 50.5296C34.6336 56.3122 28.7003 57.5036 26.4901 57.5211C27.4984 57.5131 36.3805 54.5248 38.9576 45.7626C40.3597 40.9957 41.1822 35.2753 34.6336 33.464L34.5987 33.4544C32.6525 32.9158 28.0862 31.6522 23.9176 36.7731C23.0327 37.3834 21.2682 38.1858 21.2894 36.5139C21.3106 34.842 24.7654 32.5057 26.4901 31.5466L24.027 31.7384C25.198 30.4909 27.8968 28.1789 29.8656 28.2605C27.6933 28.0708 23.1345 29.1211 19.3973 34.8055C18.6751 35.7639 17.1315 37.41 16.7351 36.3274C16.3387 35.2448 16.6427 34.6334 16.8442 34.4631C17.445 33.7977 18.7254 32.538 19.0408 32.8228C19.435 33.1787 18.1586 31.4223 19.6644 29.9131C20.869 28.7058 19.2 29.8462 18.215 30.5673C17.0034 31.4865 14.6006 32.8903 14.6819 31.1518C14.7631 29.4134 16.0927 27.8458 16.7473 27.2793C17.8019 26.2078 19.873 24.2048 20.4145 24.0415Z" fill="url(#paint1_linear)"/>
</g>
<g filter="url(#filter1_d)">
<path d="M54.3498 55.21C53.2858 55.21 52.5298 54.65 52.0818 53.53C51.6618 52.41 51.4518 50.618 51.4518 48.154C51.4518 44.514 51.9698 41.056 53.0058 37.78C53.2578 36.968 53.6638 36.38 54.2238 36.016C54.8118 35.624 55.6238 35.428 56.6598 35.428C57.2198 35.428 57.6118 35.498 57.8358 35.638C58.0598 35.778 58.1718 36.044 58.1718 36.436C58.1718 36.884 57.9618 37.892 57.5418 39.46C57.2618 40.58 57.0378 41.56 56.8698 42.4C56.7018 43.24 56.5618 44.276 56.4498 45.508C57.3738 43.1 58.4098 41.14 59.5578 39.628C60.7058 38.116 61.8258 37.038 62.9178 36.394C64.0378 35.75 65.0598 35.428 65.9838 35.428C67.8038 35.428 68.7138 36.338 68.7138 38.158C68.7138 38.522 68.5878 39.404 68.3358 40.804C68.1118 41.924 67.9998 42.624 67.9998 42.904C67.9998 43.884 68.3498 44.374 69.0498 44.374C69.8338 44.374 70.8418 43.758 72.0738 42.526C72.4378 42.162 72.8158 41.98 73.2078 41.98C73.5718 41.98 73.8518 42.148 74.0478 42.484C74.2718 42.792 74.3838 43.212 74.3838 43.744C74.3838 44.78 74.1038 45.592 73.5438 46.18C72.7598 46.992 71.8358 47.692 70.7718 48.28C69.7358 48.84 68.6298 49.12 67.4538 49.12C65.9698 49.12 64.8358 48.742 64.0518 47.986C63.2958 47.23 62.9178 46.208 62.9178 44.92C62.9178 44.5 62.9598 44.08 63.0438 43.66C63.0998 43.1 63.1278 42.722 63.1278 42.526C63.1278 42.078 62.9738 41.854 62.6658 41.854C62.2458 41.854 61.6858 42.33 60.9858 43.282C60.3138 44.206 59.6418 45.438 58.9698 46.978C58.2978 48.518 57.7518 50.142 57.3318 51.85C57.0238 53.166 56.6598 54.062 56.2398 54.538C55.8478 54.986 55.2178 55.21 54.3498 55.21ZM75.9831 32.656C74.8071 32.656 73.9251 32.39 73.3371 31.858C72.7491 31.298 72.4551 30.528 72.4551 29.548C72.4551 28.568 72.8331 27.756 73.5891 27.112C74.3731 26.44 75.3391 26.104 76.4871 26.104C77.5231 26.104 78.3631 26.356 79.0071 26.86C79.6511 27.364 79.9731 28.078 79.9731 29.002C79.9731 30.122 79.6091 31.018 78.8811 31.69C78.1531 32.334 77.1871 32.656 75.9831 32.656ZM75.6471 55.21C73.8271 55.21 72.4971 54.566 71.6571 53.278C70.8451 51.99 70.4391 50.282 70.4391 48.154C70.4391 46.894 70.5931 45.284 70.9011 43.324C71.2371 41.336 71.6571 39.488 72.1611 37.78C72.4131 36.884 72.7491 36.268 73.1691 35.932C73.5891 35.596 74.2611 35.428 75.1851 35.428C76.6131 35.428 77.3271 35.904 77.3271 36.856C77.3271 37.556 77.0611 39.18 76.5291 41.728C75.8571 44.808 75.5211 46.894 75.5211 47.986C75.5211 48.826 75.6331 49.47 75.8571 49.918C76.0811 50.366 76.4591 50.59 76.9911 50.59C77.4951 50.59 78.1251 50.24 78.8811 49.54C79.6371 48.84 80.6451 47.734 81.9051 46.222C82.2411 45.83 82.6191 45.634 83.0391 45.634C83.4031 45.634 83.6831 45.802 83.8791 46.138C84.1031 46.474 84.2151 46.936 84.2151 47.524C84.2151 48.644 83.9491 49.512 83.4171 50.128C80.6451 53.516 78.0551 55.21 75.6471 55.21ZM112.695 45.634C113.059 45.634 113.339 45.802 113.535 46.138C113.759 46.474 113.871 46.936 113.871 47.524C113.871 48.644 113.605 49.512 113.073 50.128C111.869 51.612 110.553 52.83 109.125 53.782C107.697 54.734 106.059 55.21 104.211 55.21C100.795 55.21 98.415 53.782 97.071 50.926C96.343 52.102 95.377 53.11 94.173 53.95C92.969 54.79 91.681 55.21 90.309 55.21C87.649 55.21 85.689 54.132 84.429 51.976C83.197 49.792 82.581 46.852 82.581 43.156C82.581 41.784 82.651 40.258 82.791 38.578H81.069C80.229 38.578 79.655 38.424 79.347 38.116C79.067 37.808 78.927 37.318 78.927 36.646C78.927 35.078 79.557 34.294 80.817 34.294H83.379C83.911 31.326 84.653 28.638 85.605 26.23C86.557 23.822 87.705 21.904 89.049 20.476C90.393 19.048 91.849 18.334 93.417 18.334C94.593 18.334 95.517 18.852 96.189 19.888C96.861 20.924 97.197 22.226 97.197 23.794C97.197 27.742 95.671 31.242 92.619 34.294H96.441C96.973 31.326 97.715 28.638 98.667 26.23C99.619 23.822 100.767 21.904 102.111 20.476C103.455 19.048 104.911 18.334 106.479 18.334C107.655 18.334 108.579 18.852 109.251 19.888C109.923 20.924 110.259 22.226 110.259 23.794C110.259 27.742 108.733 31.242 105.681 34.294H109.503C109.951 34.294 110.273 34.392 110.469 34.588C110.665 34.784 110.763 35.148 110.763 35.68C110.763 37.612 109.181 38.578 106.017 38.578H100.935C100.851 39.922 100.809 41.294 100.809 42.694C100.809 45.606 101.145 47.65 101.817 48.826C102.517 50.002 103.609 50.59 105.093 50.59C106.297 50.59 107.361 50.226 108.285 49.498C109.209 48.77 110.301 47.678 111.561 46.222C111.897 45.83 112.275 45.634 112.695 45.634ZM92.283 22.366C91.863 22.366 91.387 22.898 90.855 23.962C90.351 24.998 89.861 26.454 89.385 28.33C88.937 30.178 88.559 32.236 88.251 34.504C89.903 33.076 91.135 31.48 91.947 29.716C92.787 27.924 93.207 26.3 93.207 24.844C93.207 23.192 92.899 22.366 92.283 22.366ZM105.345 22.366C104.925 22.366 104.449 22.898 103.917 23.962C103.413 24.998 102.923 26.454 102.447 28.33C101.999 30.178 101.621 32.236 101.313 34.504C102.965 33.076 104.197 31.48 105.009 29.716C105.849 27.924 106.269 26.3 106.269 24.844C106.269 23.192 105.961 22.366 105.345 22.366ZM91.191 50.59C92.031 50.59 92.871 50.198 93.711 49.414C94.551 48.63 95.265 47.664 95.853 46.516C95.713 45.648 95.643 44.528 95.643 43.156C95.643 41.784 95.713 40.258 95.853 38.578H87.873C87.789 39.922 87.747 41.294 87.747 42.694C87.747 45.522 88.041 47.552 88.629 48.784C89.245 49.988 90.099 50.59 91.191 50.59ZM113.453 55.21C112.389 55.21 111.633 54.65 111.185 53.53C110.765 52.41 110.555 50.618 110.555 48.154C110.555 44.514 111.073 41.056 112.109 37.78C112.361 36.968 112.767 36.38 113.327 36.016C113.915 35.624 114.727 35.428 115.763 35.428C116.323 35.428 116.715 35.498 116.939 35.638C117.163 35.778 117.275 36.044 117.275 36.436C117.275 36.884 117.065 37.892 116.645 39.46C116.365 40.58 116.141 41.56 115.973 42.4C115.805 43.24 115.665 44.276 115.553 45.508C116.477 43.1 117.513 41.14 118.661 39.628C119.809 38.116 120.929 37.038 122.021 36.394C123.141 35.75 124.163 35.428 125.087 35.428C126.907 35.428 127.817 36.338 127.817 38.158C127.817 39.25 127.509 41.224 126.893 44.08C126.361 46.516 126.095 48.126 126.095 48.91C126.095 50.03 126.501 50.59 127.313 50.59C127.873 50.59 128.531 50.254 129.287 49.582C130.071 48.882 131.107 47.762 132.395 46.222C132.731 45.83 133.109 45.634 133.529 45.634C133.893 45.634 134.173 45.802 134.369 46.138C134.593 46.474 134.705 46.936 134.705 47.524C134.705 48.644 134.439 49.512 133.907 50.128C132.703 51.612 131.401 52.83 130.001 53.782C128.629 54.734 127.061 55.21 125.297 55.21C123.869 55.21 122.791 54.804 122.063 53.992C121.335 53.152 120.971 51.948 120.971 50.38C120.971 49.596 121.167 48.196 121.559 46.18C121.923 44.416 122.105 43.198 122.105 42.526C122.105 42.078 121.951 41.854 121.643 41.854C121.279 41.854 120.761 42.33 120.089 43.282C119.445 44.206 118.773 45.438 118.073 46.978C117.401 48.518 116.855 50.142 116.435 51.85C116.127 53.166 115.763 54.062 115.343 54.538C114.951 54.986 114.321 55.21 113.453 55.21ZM150.039 45.634C150.403 45.634 150.683 45.802 150.879 46.138C151.103 46.474 151.215 46.936 151.215 47.524C151.215 48.644 150.949 49.512 150.417 50.128C149.381 51.388 147.911 52.55 146.007 53.614C144.131 54.678 142.115 55.21 139.959 55.21C137.019 55.21 134.737 54.412 133.113 52.816C131.489 51.22 130.677 49.036 130.677 46.264C130.677 44.332 131.083 42.54 131.895 40.888C132.707 39.208 133.827 37.878 135.255 36.898C136.711 35.918 138.349 35.428 140.169 35.428C141.793 35.428 143.095 35.918 144.075 36.898C145.055 37.85 145.545 39.152 145.545 40.804C145.545 42.736 144.845 44.402 143.445 45.802C142.073 47.174 139.735 48.266 136.431 49.078C137.131 50.366 138.461 51.01 140.421 51.01C141.681 51.01 143.109 50.576 144.705 49.708C146.329 48.812 147.729 47.65 148.905 46.222C149.241 45.83 149.619 45.634 150.039 45.634ZM139.455 39.544C138.419 39.544 137.537 40.146 136.809 41.35C136.109 42.554 135.759 44.01 135.759 45.718V45.802C137.411 45.41 138.713 44.822 139.665 44.038C140.617 43.254 141.093 42.344 141.093 41.308C141.093 40.776 140.939 40.356 140.631 40.048C140.351 39.712 139.959 39.544 139.455 39.544ZM162.496 35.428C163.14 35.428 163.588 35.512 163.84 35.68C164.092 35.848 164.218 36.128 164.218 36.52C164.218 37.192 163.854 39.586 163.126 43.702C162.482 47.65 162.104 49.988 161.992 50.716C160.956 57.912 159.528 63.61 157.708 67.81C155.888 72.01 153.466 74.11 150.442 74.11C149.014 74.11 147.852 73.662 146.956 72.766C146.06 71.898 145.612 70.75 145.612 69.322C145.612 68.006 145.906 66.662 146.494 65.29C147.11 63.918 148.23 62.336 149.854 60.544C151.506 58.78 153.83 56.75 156.826 54.454L156.952 53.488C157.148 52.452 157.372 50.968 157.624 49.036C157.064 51.052 156.28 52.592 155.272 53.656C154.264 54.692 153.2 55.21 152.08 55.21C150.82 55.21 149.784 54.636 148.972 53.488C148.188 52.312 147.796 50.856 147.796 49.12C147.796 47.02 147.936 45.102 148.216 43.366C148.496 41.602 148.958 39.74 149.602 37.78C149.882 36.94 150.274 36.338 150.778 35.974C151.282 35.61 152.08 35.428 153.172 35.428C153.788 35.428 154.208 35.526 154.432 35.722C154.684 35.918 154.81 36.212 154.81 36.604C154.81 36.828 154.656 37.584 154.348 38.872C154.068 39.908 153.844 40.846 153.676 41.686C153.452 42.834 153.256 43.94 153.088 45.004C152.92 46.04 152.836 46.894 152.836 47.566C152.836 48.63 153.13 49.162 153.718 49.162C154.138 49.162 154.656 48.742 155.272 47.902C155.916 47.062 156.588 45.788 157.288 44.08C158.016 42.372 158.716 40.272 159.388 37.78C159.612 36.94 159.948 36.338 160.396 35.974C160.872 35.61 161.572 35.428 162.496 35.428ZM150.904 70.036C151.604 70.036 152.388 69.224 153.256 67.6C154.124 65.976 154.992 63.274 155.86 59.494C153.704 61.314 152.136 62.966 151.156 64.45C150.204 65.962 149.728 67.278 149.728 68.398C149.728 68.874 149.812 69.266 149.98 69.574C150.176 69.882 150.484 70.036 150.904 70.036ZM210.328 29.968C210.328 32.348 209.712 34.532 208.48 36.52C207.248 38.508 205.456 40.132 203.104 41.392C200.752 42.652 197.952 43.394 194.704 43.618L192.898 53.74C192.198 57.632 190.294 59.578 187.186 59.578C185.478 59.578 183.896 59.074 182.44 58.066C181.012 57.058 179.864 55.518 178.996 53.446C178.128 51.374 177.694 48.826 177.694 45.802C177.694 40.118 178.604 35.302 180.424 31.354C182.272 27.378 184.736 24.41 187.816 22.45C190.924 20.462 194.34 19.468 198.064 19.468C200.696 19.468 202.922 19.93 204.742 20.854C206.59 21.778 207.976 23.038 208.9 24.634C209.852 26.202 210.328 27.98 210.328 29.968ZM195.46 39.292C201.2 38.564 204.07 35.582 204.07 30.346C204.07 28.498 203.454 27 202.222 25.852C201.018 24.676 199.142 24.088 196.594 24.088C193.71 24.088 191.19 24.998 189.034 26.818C186.906 28.638 185.254 31.172 184.078 34.42C182.93 37.64 182.356 41.322 182.356 45.466C182.356 47.202 182.524 48.742 182.86 50.086C183.224 51.43 183.672 52.48 184.204 53.236C184.764 53.964 185.296 54.328 185.8 54.328C186.5 54.328 187.032 53.362 187.396 51.43L188.782 43.492C187.69 43.324 187.214 43.254 187.354 43.282C186.514 43.142 185.968 42.89 185.716 42.526C185.464 42.134 185.338 41.644 185.338 41.056C185.338 40.44 185.506 39.95 185.842 39.586C186.206 39.222 186.696 39.04 187.312 39.04C187.592 39.04 187.802 39.054 187.942 39.082C188.614 39.194 189.132 39.264 189.496 39.292C189.86 37.108 190.378 34.182 191.05 30.514C191.218 29.562 191.596 28.89 192.184 28.498C192.8 28.078 193.514 27.868 194.326 27.868C195.25 27.868 195.908 28.05 196.3 28.414C196.72 28.75 196.93 29.296 196.93 30.052C196.93 30.5 196.902 30.864 196.846 31.144L195.46 39.292ZM216.581 55.21C214.929 55.21 213.515 54.804 212.339 53.992C211.191 53.152 210.323 52.06 209.735 50.716C209.147 49.372 208.853 47.93 208.853 46.39C208.853 44.262 209.245 42.372 210.029 40.72C210.841 39.04 211.933 37.738 213.305 36.814C214.677 35.862 216.217 35.386 217.925 35.386C219.577 35.386 220.991 35.806 222.167 36.646C223.343 37.458 224.225 38.536 224.813 39.88C225.401 41.224 225.695 42.666 225.695 44.206C225.695 46.334 225.289 48.238 224.477 49.918C223.665 51.57 222.559 52.872 221.159 53.824C219.787 54.748 218.261 55.21 216.581 55.21ZM217.043 50.674C217.995 50.674 218.793 50.156 219.437 49.12C220.109 48.084 220.445 46.572 220.445 44.584C220.445 43.044 220.165 41.882 219.605 41.098C219.045 40.314 218.373 39.922 217.589 39.922C216.581 39.922 215.741 40.44 215.069 41.476C214.425 42.484 214.103 43.996 214.103 46.012C214.103 47.608 214.383 48.784 214.943 49.54C215.503 50.296 216.203 50.674 217.043 50.674ZM236.121 56.134C234.665 56.134 233.545 55.798 232.761 55.126C232.005 54.454 231.627 53.698 231.627 52.858C231.627 52.13 231.893 51.5 232.425 50.968C232.957 50.436 233.741 50.17 234.777 50.17C235.141 50.17 235.561 50.212 236.037 50.296C236.541 50.352 236.919 50.394 237.171 50.422C237.143 49.694 236.975 49.008 236.667 48.364C236.387 47.72 236.023 47.104 235.575 46.516C235.127 45.9 234.707 45.368 234.315 44.92C233.447 46.572 232.579 47.944 231.711 49.036C230.871 50.128 229.947 51.164 228.939 52.144C228.435 52.648 227.903 52.9 227.343 52.9C226.895 52.9 226.531 52.746 226.251 52.438C225.971 52.102 225.831 51.696 225.831 51.22C225.831 50.66 226.027 50.142 226.419 49.666L226.965 48.994C228.505 47.09 229.667 45.522 230.451 44.29C230.927 43.478 231.487 42.4 232.131 41.056C232.775 39.684 233.405 38.27 234.021 36.814C234.553 35.582 235.659 34.966 237.339 34.966C238.123 34.966 238.669 35.036 238.977 35.176C239.285 35.316 239.439 35.54 239.439 35.848C239.439 36.016 239.383 36.282 239.271 36.646C239.159 37.01 239.005 37.374 238.809 37.738C238.305 38.746 238.053 39.6 238.053 40.3C238.053 40.72 238.193 41.182 238.473 41.686C238.781 42.19 239.243 42.82 239.859 43.576C240.755 44.752 241.427 45.76 241.875 46.6C242.351 47.412 242.589 48.308 242.589 49.288C242.589 49.568 242.561 49.96 242.505 50.464C243.877 49.932 245.487 48.518 247.335 46.222C247.671 45.83 248.049 45.634 248.469 45.634C248.833 45.634 249.113 45.802 249.309 46.138C249.533 46.474 249.645 46.936 249.645 47.524C249.645 48.588 249.379 49.456 248.847 50.128C247.447 51.864 246.103 53.054 244.815 53.698C243.555 54.314 241.987 54.65 240.111 54.706C238.991 55.658 237.661 56.134 236.121 56.134ZM264.965 45.634C265.329 45.634 265.609 45.802 265.805 46.138C266.029 46.474 266.141 46.936 266.141 47.524C266.141 48.644 265.875 49.512 265.343 50.128C264.139 51.612 262.823 52.83 261.395 53.782C259.967 54.734 258.329 55.21 256.481 55.21C250.769 55.21 247.913 51.192 247.913 43.156C247.913 41.924 247.955 40.678 248.039 39.418H246.401C245.561 39.418 244.987 39.264 244.679 38.956C244.399 38.648 244.259 38.158 244.259 37.486C244.259 35.918 244.889 35.134 246.149 35.134H248.543C249.019 32.054 249.747 29.24 250.727 26.692C251.707 24.144 252.883 22.114 254.255 20.602C255.655 19.09 257.153 18.334 258.749 18.334C259.925 18.334 260.849 18.852 261.521 19.888C262.193 20.924 262.529 22.226 262.529 23.794C262.529 28.134 260.709 31.914 257.069 35.134H261.773C262.221 35.134 262.543 35.232 262.739 35.428C262.935 35.624 263.033 35.988 263.033 36.52C263.033 38.452 261.451 39.418 258.287 39.418H253.163C253.107 40.818 253.079 41.91 253.079 42.694C253.079 45.606 253.415 47.65 254.087 48.826C254.787 50.002 255.879 50.59 257.363 50.59C258.567 50.59 259.631 50.226 260.555 49.498C261.479 48.77 262.571 47.678 263.831 46.222C264.167 45.83 264.545 45.634 264.965 45.634ZM257.615 22.366C257.195 22.366 256.719 22.898 256.187 23.962C255.683 24.998 255.193 26.454 254.717 28.33C254.269 30.178 253.891 32.236 253.583 34.504C255.235 33.076 256.467 31.48 257.279 29.716C258.119 27.924 258.539 26.3 258.539 24.844C258.539 23.192 258.231 22.366 257.615 22.366ZM265.703 55.21C264.639 55.21 263.883 54.65 263.435 53.53C263.015 52.41 262.805 50.618 262.805 48.154C262.805 44.514 263.323 41.056 264.359 37.78C264.611 36.968 265.017 36.38 265.577 36.016C266.165 35.624 266.977 35.428 268.013 35.428C268.573 35.428 268.965 35.498 269.189 35.638C269.413 35.778 269.525 36.044 269.525 36.436C269.525 36.884 269.315 37.892 268.895 39.46C268.615 40.58 268.391 41.56 268.223 42.4C268.055 43.212 267.915 44.234 267.803 45.466C268.559 43.282 269.455 41.434 270.491 39.922C271.555 38.41 272.633 37.29 273.725 36.562C274.845 35.806 275.895 35.428 276.875 35.428C277.855 35.428 278.541 35.652 278.933 36.1C279.353 36.548 279.563 37.234 279.563 38.158C279.563 39.054 279.297 40.678 278.765 43.03C278.541 44.038 278.387 44.794 278.303 45.298C279.703 41.854 281.257 39.348 282.965 37.78C284.673 36.212 286.269 35.428 287.753 35.428C289.573 35.428 290.483 36.338 290.483 38.158C290.483 39.25 290.175 41.224 289.559 44.08C289.027 46.516 288.761 48.126 288.761 48.91C288.761 50.03 289.167 50.59 289.979 50.59C290.539 50.59 291.197 50.254 291.953 49.582C292.737 48.882 293.773 47.762 295.061 46.222C295.397 45.83 295.775 45.634 296.195 45.634C296.559 45.634 296.839 45.802 297.035 46.138C297.259 46.474 297.371 46.936 297.371 47.524C297.371 48.644 297.105 49.512 296.573 50.128C295.369 51.612 294.067 52.83 292.667 53.782C291.295 54.734 289.727 55.21 287.963 55.21C286.535 55.21 285.457 54.804 284.729 53.992C284.001 53.152 283.637 51.948 283.637 50.38C283.637 49.596 283.833 48.196 284.225 46.18C284.589 44.416 284.771 43.198 284.771 42.526C284.771 42.078 284.617 41.854 284.309 41.854C283.945 41.854 283.427 42.33 282.755 43.282C282.083 44.206 281.411 45.438 280.739 46.978C280.067 48.518 279.521 50.142 279.101 51.85C278.793 53.194 278.429 54.09 278.009 54.538C277.617 54.986 276.973 55.21 276.077 55.21C275.153 55.21 274.453 54.776 273.977 53.908C273.529 53.012 273.305 51.934 273.305 50.674C273.305 49.61 273.445 48.07 273.725 46.054C273.949 44.262 274.061 43.086 274.061 42.526C274.061 42.078 273.907 41.854 273.599 41.854C273.179 41.854 272.647 42.358 272.003 43.366C271.359 44.374 270.729 45.662 270.113 47.23C269.525 48.798 269.049 50.338 268.685 51.85C268.377 53.166 268.013 54.062 267.593 54.538C267.201 54.986 266.571 55.21 265.703 55.21ZM298.805 55.21C297.209 55.21 295.907 54.58 294.899 53.32C293.919 52.06 293.429 50.408 293.429 48.364C293.429 46.124 293.947 44.01 294.983 42.022C296.019 40.006 297.391 38.396 299.099 37.192C300.835 35.96 302.669 35.344 304.601 35.344C305.217 35.344 305.623 35.47 305.819 35.722C306.043 35.946 306.225 36.366 306.365 36.982C306.897 36.87 307.485 36.814 308.129 36.814C308.801 36.814 309.319 36.982 309.683 37.318C310.047 37.654 310.229 38.13 310.229 38.746C310.229 39.39 310.089 40.51 309.809 42.106C309.501 43.814 309.263 45.452 309.095 47.02C308.927 48.56 308.843 50.296 308.843 52.228C308.843 53.292 308.619 54.062 308.171 54.538C307.751 54.986 307.051 55.21 306.071 55.21C305.119 55.21 304.405 54.986 303.929 54.538C303.481 54.062 303.257 53.306 303.257 52.27L303.299 51.598C302.431 54.006 300.933 55.21 298.805 55.21ZM300.443 50.968C301.227 50.968 301.941 50.422 302.585 49.33C303.229 48.238 303.803 46.292 304.307 43.492L305.105 39.25C303.957 39.278 302.893 39.726 301.913 40.594C300.933 41.434 300.149 42.554 299.561 43.954C298.973 45.354 298.679 46.838 298.679 48.406C298.679 49.246 298.833 49.89 299.141 50.338C299.477 50.758 299.911 50.968 300.443 50.968Z" fill="url(#paint2_diamond)"/>
</g>
<defs>
<filter id="filter0_d" x="0" y="1.90674" width="59.3584" height="67.2363" filterUnits="userSpaceOnUse" color-interpolation-filters="sRGB">
<feFlood flood-opacity="0" result="BackgroundImageFix"/>
<feColorMatrix in="SourceAlpha" type="matrix" values="0 0 0 0 0 0 0 0 0 0 0 0 0 0 0 0 0 0 127 0"/>
<feOffset dy="4"/>
<feGaussianBlur stdDeviation="2"/>
<feColorMatrix type="matrix" values="0 0 0 0 0 0 0 0 0 0 0 0 0 0 0 0 0 0 0.25 0"/>
<feBlend mode="normal" in2="BackgroundImageFix" result="effect1_dropShadow"/>
<feBlend mode="normal" in="SourceGraphic" in2="effect1_dropShadow" result="shape"/>
</filter>
<filter id="filter1_d" x="47.4518" y="18.334" width="266.777" height="63.776" filterUnits="userSpaceOnUse" color-interpolation-filters="sRGB">
<feFlood flood-opacity="0" result="BackgroundImageFix"/>
<feColorMatrix in="SourceAlpha" type="matrix" values="0 0 0 0 0 0 0 0 0 0 0 0 0 0 0 0 0 0 127 0"/>
<feOffset dy="4"/>
<feGaussianBlur stdDeviation="2"/>
<feColorMatrix type="matrix" values="0 0 0 0 0 0 0 0 0 0 0 0 0 0 0 0 0 0 0.25 0"/>
<feBlend mode="normal" in2="BackgroundImageFix" result="effect1_dropShadow"/>
<feBlend mode="normal" in="SourceGraphic" in2="effect1_dropShadow" result="shape"/>
</filter>
<radialGradient id="paint0_diamond" cx="0" cy="0" r="1" gradientUnits="userSpaceOnUse" gradientTransform="translate(9.11943 10.7578) rotate(64.5408) scale(55.7497 60.3035)">
<stop stop-color="#00E0FF"/>
<stop offset="0.2" stop-color="#0EC9EC"/>
<stop offset="0.4" stop-color="#15B3D9"/>
<stop offset="0.6" stop-color="#189EC6"/>
<stop offset="0.8" stop-color="#1889B3"/>
<stop offset="1" stop-color="#1774A1"/>
</radialGradient>
<linearGradient id="paint1_linear" x1="14.9385" y1="25.1004" x2="42.7634" y2="50.2239" gradientUnits="userSpaceOnUse">
<stop stop-color="white"/>
<stop offset="0.0989583" stop-color="#E1F9FF"/>
<stop offset="0.197917" stop-color="#C0F3FF"/>
<stop offset="0.296875" stop-color="#9BEDFF"/>
<stop offset="0.395833" stop-color="#6DE7FF"/>
<stop offset="0.494792" stop-color="#00E0FF"/>
<stop offset="0.494792" stop-color="#00E0FF"/>
<stop offset="0.595833" stop-color="#18C2E5"/>
<stop offset="0.696875" stop-color="#20A4CC"/>
<stop offset="0.797917" stop-color="#2288B4"/>
<stop offset="0.898958" stop-color="#216C9B"/>
<stop offset="1" stop-color="#1D5284"/>
</linearGradient>
<radialGradient id="paint2_diamond" cx="0" cy="0" r="1" gradientUnits="userSpaceOnUse" gradientTransform="translate(48.7786 19.24) rotate(7.60559) scale(264.646 188.232)">
<stop stop-color="white"/>
<stop offset="0.223958" stop-color="#26E5FF"/>
<stop offset="0.40625" stop-color="#26CCEA"/>
<stop offset="0.552083" stop-color="#24B3D6"/>
<stop offset="0.734375" stop-color="#219AC1"/>
<stop offset="0.90625" stop-color="#1D83AE"/>
<stop offset="1" stop-color="#186C9A"/>
</radialGradient>
</defs>
</svg>
