<svg width="60" height="69" viewBox="0 0 60 69" fill="none" xmlns="http://www.w3.org/2000/svg">
<g filter="url(#filter0_d)">
<path d="M8.03826 43.1738C4.86315 33.2957 9.30929 11.7119 15.6055 0.90686C15.9062 4.78649 4.57554 27.7746 17.8083 45.4816C25.7358 56.0895 31.8765 49.527 32.4446 45.4816C34.6469 51.5176 30.7061 54.7601 27.5672 55.6283C17.8083 58.3275 10.8984 52.0721 8.03826 43.1738Z" fill="url(#paint0_diamond)"/>
<path d="M20.4145 23.0416C18.4404 22.9333 15.7527 21.9588 20.0371 18.8318C22.8608 16.5498 33.3994 13.1658 40.076 18.8318C46.7526 24.4978 46.5847 29.8976 46.5847 33.3221C46.5847 38.5932 45.1608 44.1272 40.076 49.5297C34.6336 55.3123 28.7003 56.5037 26.4901 56.5212C27.4984 56.5132 36.3805 53.5249 38.9576 44.7628C40.3597 39.9958 41.1822 34.2755 34.6336 32.4641L34.5987 32.4545C32.6525 31.9159 28.0862 30.6523 23.9176 35.7733C23.0327 36.3835 21.2682 37.1859 21.2894 35.514C21.3106 33.8421 24.7654 31.5059 26.4901 30.5467L24.027 30.7386C25.198 29.4911 27.8968 27.179 29.8656 27.2606C27.6933 27.0709 23.1345 28.1212 19.3973 33.8056C18.6751 34.764 17.1315 36.4101 16.7351 35.3275C16.3387 34.2449 16.6427 33.6335 16.8442 33.4632C17.445 32.7978 18.7254 31.5381 19.0408 31.8229C19.435 32.1788 18.1586 30.4224 19.6644 28.9132C20.869 27.7059 19.2 28.8463 18.215 29.5674C17.0034 30.4866 14.6006 31.8904 14.6819 30.1519C14.7631 28.4135 16.0927 26.8459 16.7473 26.2794C17.8019 25.2079 19.873 23.2049 20.4145 23.0416Z" fill="url(#paint1_linear)"/>
</g>
<defs>
<filter id="filter0_d" x="0" y="0.90686" width="59.3584" height="67.2364" filterUnits="userSpaceOnUse" color-interpolation-filters="sRGB">
<feFlood flood-opacity="0" result="BackgroundImageFix"/>
<feColorMatrix in="SourceAlpha" type="matrix" values="0 0 0 0 0 0 0 0 0 0 0 0 0 0 0 0 0 0 127 0"/>
<feOffset dy="4"/>
<feGaussianBlur stdDeviation="2"/>
<feColorMatrix type="matrix" values="0 0 0 0 0 0 0 0 0 0 0 0 0 0 0 0 0 0 0.25 0"/>
<feBlend mode="normal" in2="BackgroundImageFix" result="effect1_dropShadow"/>
<feBlend mode="normal" in="SourceGraphic" in2="effect1_dropShadow" result="shape"/>
</filter>
<radialGradient id="paint0_diamond" cx="0" cy="0" r="1" gradientUnits="userSpaceOnUse" gradientTransform="translate(9.11949 9.75789) rotate(64.5408) scale(55.7497 60.3035)">
<stop stop-color="#00E0FF"/>
<stop offset="0.2" stop-color="#0EC9EC"/>
<stop offset="0.4" stop-color="#15B3D9"/>
<stop offset="0.6" stop-color="#189EC6"/>
<stop offset="0.8" stop-color="#1889B3"/>
<stop offset="1" stop-color="#1774A1"/>
</radialGradient>
<linearGradient id="paint1_linear" x1="14.9385" y1="24.1005" x2="42.7634" y2="49.224" gradientUnits="userSpaceOnUse">
<stop stop-color="white"/>
<stop offset="0.0989583" stop-color="#E1F9FF"/>
<stop offset="0.197917" stop-color="#C0F3FF"/>
<stop offset="0.296875" stop-color="#9BEDFF"/>
<stop offset="0.395833" stop-color="#6DE7FF"/>
<stop offset="0.494792" stop-color="#00E0FF"/>
<stop offset="0.494792" stop-color="#00E0FF"/>
<stop offset="0.595833" stop-color="#18C2E5"/>
<stop offset="0.696875" stop-color="#20A4CC"/>
<stop offset="0.797917" stop-color="#2288B4"/>
<stop offset="0.898958" stop-color="#216C9B"/>
<stop offset="1" stop-color="#1D5284"/>
</linearGradient>
</defs>
</svg>
