<svg width="795" height="301" viewBox="0 0 795 301" fill="none" xmlns="http://www.w3.org/2000/svg">
<g filter="url(#filter0_d_2108_1083)">
<path d="M332.932 100.153C332.932 103.536 330.187 106.278 326.801 106.278C323.414 106.278 320.669 103.536 320.669 100.153C320.669 96.7708 323.414 94.0288 326.801 94.0288C330.187 94.0288 332.932 96.7708 332.932 100.153Z" fill="white"/>
</g>
<g filter="url(#filter1_d_2108_1083)">
<path d="M236.648 116.993L232.688 135.033C234.742 132.686 236.868 130.413 239.068 128.213C241.268 125.866 243.542 123.813 245.888 122.053C248.382 120.146 250.948 118.679 253.588 117.653C256.228 116.479 259.088 115.893 262.168 115.893C266.568 115.893 269.722 116.919 271.628 118.973C273.535 120.879 274.488 123.299 274.488 126.233C274.488 129.019 273.975 131.366 272.948 133.273C272.068 135.033 270.968 136.499 269.648 137.673C268.328 138.699 266.935 139.433 265.468 139.873C264.002 140.313 262.755 140.533 261.728 140.533C260.408 140.533 259.382 140.239 258.648 139.653C258.062 139.066 257.402 138.479 256.668 137.893C256.082 137.159 255.348 136.499 254.468 135.913C253.588 135.326 252.342 135.033 250.728 135.033C247.502 135.033 244.055 136.206 240.388 138.553C236.868 140.753 233.568 143.173 230.488 145.813L213.108 226.993H191.108L214.428 116.993H236.648ZM305.714 85.3127C305.714 81.3527 307.108 77.906 309.894 74.9727C312.681 72.0393 316.128 70.5727 320.234 70.5727C324.194 70.5727 327.641 72.0393 330.574 74.9727C333.508 77.906 334.974 81.3527 334.974 85.3127C334.974 89.4193 333.508 92.866 330.574 95.6527C327.641 98.4393 324.194 99.8327 320.234 99.8327C316.128 99.8327 312.681 98.4393 309.894 95.6527C307.108 92.866 305.714 89.4193 305.714 85.3127ZM326.174 116.993L310.114 191.793C309.381 194.726 309.014 198.026 309.014 201.693C309.014 204.186 309.454 206.459 310.334 208.513C311.214 210.566 313.048 211.593 315.834 211.593C319.354 211.593 322.874 209.466 326.394 205.213C330.061 200.959 333.508 195.093 336.734 187.613H344.874C341.354 196.853 337.834 204.186 334.314 209.613C330.794 214.893 327.348 218.926 323.974 221.713C320.748 224.499 317.594 226.259 314.514 226.993C311.581 227.873 308.941 228.313 306.594 228.313C302.781 228.313 299.628 227.653 297.134 226.333C294.641 225.013 292.661 223.253 291.194 221.053C289.728 218.853 288.628 216.286 287.894 213.353C287.308 210.419 287.014 207.266 287.014 203.893C287.014 201.253 287.161 198.539 287.454 195.753C287.894 192.966 288.408 190.253 288.994 187.613L303.954 116.993H326.174ZM359.57 116.993H366.83L373.43 86.6327L396.31 83.5527L389.05 116.993H405.99L404.45 124.693H387.29L372.99 191.793C372.696 192.966 372.33 194.433 371.89 196.193C371.596 197.953 371.45 199.639 371.45 201.253C371.45 203.893 371.963 206.313 372.99 208.513C374.163 210.566 376.436 211.593 379.81 211.593C383.77 211.593 387.876 209.466 392.13 205.213C396.383 200.959 400.343 195.093 404.01 187.613H412.15C408.336 195.679 404.523 202.353 400.71 207.633C396.896 212.913 393.23 217.093 389.71 220.173C386.19 223.253 382.743 225.379 379.37 226.553C376.143 227.726 373.21 228.313 370.57 228.313C366.463 228.313 363.09 227.653 360.45 226.333C357.81 224.866 355.683 223.033 354.07 220.833C352.603 218.486 351.503 215.846 350.77 212.913C350.183 209.833 349.89 206.753 349.89 203.673C349.89 200.886 350.11 198.099 350.55 195.313C350.99 192.379 351.43 189.813 351.87 187.613L365.29 124.693H358.03L359.57 116.993ZM426.962 116.993H434.222L440.822 86.6327L463.702 83.5527L456.442 116.993H473.382L471.842 124.693H454.682L440.382 191.793C440.089 192.966 439.722 194.433 439.282 196.193C438.989 197.953 438.842 199.639 438.842 201.253C438.842 203.893 439.355 206.313 440.382 208.513C441.555 210.566 443.829 211.593 447.202 211.593C451.162 211.593 455.269 209.466 459.522 205.213C463.775 200.959 467.735 195.093 471.402 187.613H479.542C475.729 195.679 471.915 202.353 468.102 207.633C464.289 212.913 460.622 217.093 457.102 220.173C453.582 223.253 450.135 225.379 446.762 226.553C443.535 227.726 440.602 228.313 437.962 228.313C433.855 228.313 430.482 227.653 427.842 226.333C425.202 224.866 423.075 223.033 421.462 220.833C419.995 218.486 418.895 215.846 418.162 212.913C417.575 209.833 417.282 206.753 417.282 203.673C417.282 200.886 417.502 198.099 417.942 195.313C418.382 192.379 418.822 189.813 419.262 187.613L432.682 124.693H425.422L426.962 116.993ZM523.834 116.993L520.314 133.493C523.101 129.679 525.888 126.599 528.674 124.253C531.461 121.906 534.101 120.146 536.594 118.973C539.234 117.653 541.654 116.846 543.854 116.553C546.201 116.113 548.328 115.893 550.234 115.893C554.634 115.893 558.301 116.553 561.234 117.873C564.168 119.193 566.514 121.026 568.274 123.373C570.034 125.573 571.208 128.213 571.794 131.293C572.528 134.226 572.894 137.379 572.894 140.753C572.894 145.593 572.308 150.653 571.134 155.933C570.108 161.213 568.934 166.419 567.614 171.553C566.294 176.686 565.048 181.746 563.874 186.733C562.848 191.719 562.334 196.413 562.334 200.813C562.334 203.893 562.774 206.459 563.654 208.513C564.534 210.566 566.294 211.593 568.934 211.593C575.828 211.593 582.721 203.599 589.614 187.613H597.754C594.234 196.853 590.714 204.186 587.194 209.613C583.674 215.039 580.228 219.146 576.854 221.933C573.628 224.573 570.548 226.259 567.614 226.993C564.828 227.873 562.334 228.313 560.134 228.313C552.508 228.313 547.081 225.966 543.854 221.273C540.628 216.433 539.014 210.493 539.014 203.453C539.014 198.613 539.528 193.553 540.554 188.273C541.728 182.993 542.974 177.786 544.294 172.653C545.614 167.519 546.788 162.606 547.814 157.913C548.988 153.073 549.574 148.673 549.574 144.713C549.574 141.046 548.914 138.113 547.594 135.913C546.274 133.713 543.708 132.613 539.894 132.613C530.801 132.613 522.661 140.459 515.474 156.153L500.294 226.993H478.294L501.614 116.993H523.834ZM682.189 138.553C682.189 151.019 677.276 161.139 667.449 168.913C657.769 176.539 644.349 181.233 627.189 182.993C627.043 184.166 626.969 185.339 626.969 186.513C626.969 187.539 626.969 188.639 626.969 189.813C626.969 197.293 628.363 202.793 631.149 206.313C634.083 209.833 639.069 211.593 646.109 211.593C653.149 211.593 660.116 209.759 667.009 206.093C673.903 202.426 680.209 196.266 685.929 187.613H692.969C690.036 193.039 686.516 198.246 682.409 203.233C678.303 208.073 673.756 212.399 668.769 216.213C663.783 219.879 658.429 222.813 652.709 225.013C647.136 227.213 641.416 228.313 635.549 228.313C631.296 228.313 627.189 227.653 623.229 226.333C619.416 225.013 615.969 222.959 612.889 220.173C609.956 217.386 607.536 213.793 605.629 209.393C603.869 204.846 602.989 199.419 602.989 193.113C602.989 189.006 603.429 184.239 604.309 178.813C605.189 173.386 606.509 167.813 608.269 162.093C610.176 156.373 612.596 150.726 615.529 145.153C618.609 139.579 622.203 134.666 626.309 130.413C630.416 126.013 635.109 122.493 640.389 119.853C645.816 117.213 651.903 115.893 658.649 115.893C661.729 115.893 664.663 116.259 667.449 116.993C670.236 117.579 672.729 118.753 674.929 120.513C677.129 122.126 678.889 124.399 680.209 127.333C681.529 130.266 682.189 134.006 682.189 138.553ZM660.629 126.673C656.523 126.673 652.709 128.139 649.189 131.073C645.669 133.859 642.516 137.526 639.729 142.073C637.089 146.619 634.743 151.753 632.689 157.473C630.783 163.046 629.316 168.693 628.289 174.413C640.609 172.506 650.436 168.179 657.769 161.433C665.103 154.686 668.769 146.326 668.769 136.353C668.769 133.859 668.256 131.659 667.229 129.753C666.349 127.699 664.149 126.673 660.629 126.673ZM738.326 116.993L722.266 191.793C721.679 194.139 721.386 196.559 721.386 199.053C721.386 203.306 722.339 206.459 724.246 208.513C726.152 210.566 728.499 211.593 731.286 211.593C735.539 211.593 739.866 209.539 744.266 205.433C748.812 201.179 751.892 195.239 753.506 187.613L768.466 116.993H790.466L763.406 244.593C761.792 252.513 759.959 258.893 757.906 263.733C755.999 268.573 753.799 272.313 751.306 274.953C748.959 277.739 746.319 279.573 743.386 280.453C740.452 281.479 737.152 281.993 733.486 281.993C726.739 281.993 721.019 280.453 716.326 277.373C711.632 274.439 709.286 269.379 709.286 262.193C709.286 258.526 710.312 255.079 712.366 251.853C714.566 248.773 717.352 245.839 720.726 243.053C724.099 240.266 727.839 237.773 731.946 235.573C736.199 233.373 740.379 231.466 744.486 229.853L747.346 215.993C743.679 220.246 739.792 223.399 735.686 225.453C731.726 227.359 727.839 228.313 724.026 228.313C720.652 228.313 717.499 227.653 714.566 226.333C711.632 224.866 709.066 222.886 706.866 220.393C704.666 217.899 702.906 214.819 701.586 211.153C700.412 207.486 699.826 203.379 699.826 198.833C699.826 195.313 700.266 191.573 701.146 187.613L716.106 116.993H738.326ZM726.006 270.553C730.112 270.553 733.266 268.206 735.466 263.513C737.666 258.819 739.572 252.659 741.186 245.033L742.726 237.993C734.512 241.513 728.279 245.399 724.026 249.653C719.919 253.906 717.866 258.013 717.866 261.973C717.866 264.466 718.526 266.519 719.846 268.133C721.312 269.746 723.366 270.553 726.006 270.553Z" fill="white"/>
</g>
<g filter="url(#filter2_d_2108_1083)">
<path fill-rule="evenodd" clip-rule="evenodd" d="M321.104 57.1518C320.385 56.586 319.132 56.0972 316.705 56.5819C314.344 57.0536 313.946 57.8937 313.818 58.3189C313.581 59.1044 313.697 60.571 314.694 62.8332C316.281 66.4335 319.431 70.5587 322.431 73.8463C323.347 69.9862 323.915 64.8001 323.073 60.9735C322.641 59.0116 321.925 57.7983 321.104 57.1518ZM315.395 75.0766C312.925 72.0568 310.54 68.6078 309.083 65.3018C307.908 62.6387 307.066 59.4736 307.947 56.5525C308.936 53.271 311.732 51.3295 315.503 50.5762C319.207 49.8361 322.425 50.3936 324.899 52.3413C327.271 54.2085 328.471 56.9762 329.062 59.6587C329.499 61.6463 329.649 63.8001 329.609 65.9412C330.482 65.1421 331.384 64.3681 332.296 63.6509C334.145 62.1981 336.18 60.8645 338.217 60.0739C340.205 59.302 342.719 58.8536 345.067 60.0264C347.647 61.3149 349.061 63.7202 349.061 66.402C349.061 68.9418 347.816 71.4026 345.864 73.3524C344.112 75.1026 341.719 76.5413 338.743 77.4602C339.1 77.6776 339.45 77.8999 339.794 78.1272C341.966 79.5645 344.06 81.3343 345.436 83.4557C346.868 85.6645 347.578 88.3771 346.604 91.2947C345.621 94.2418 343.683 96.5394 340.831 97.3303C338.074 98.095 335.253 97.2253 332.895 95.6213C332.737 95.5141 332.58 95.4029 332.424 95.2876C332.531 97.657 332.398 99.9999 331.73 101.843C331.294 103.047 330.494 104.414 329.005 105.222C327.455 106.062 325.782 105.964 324.332 105.481C317.836 103.318 315.761 96.5857 315.57 91.0744C315.556 90.6853 315.551 90.2953 315.555 89.9055C315.408 90.0144 315.26 90.1211 315.113 90.2254C313.175 91.5914 310.808 92.7928 308.281 92.8519C305.475 92.9175 303.029 91.5679 301.29 88.9626C299.605 86.4377 298.521 83.6065 299.529 80.8893C300.53 78.1893 303.107 76.9375 305.259 76.2927C307.538 75.6098 310.328 75.3097 313.167 75.163C313.894 75.1255 314.639 75.0975 315.395 75.0766ZM315.952 81.1888C315.106 81.2092 314.282 81.2383 313.484 81.2795C310.766 81.4199 308.574 81.6937 307.021 82.1591C305.676 82.5621 305.34 82.9441 305.282 83.0206C305.269 83.1488 305.258 83.8663 306.392 85.5653C307.105 86.6348 307.673 86.7398 308.138 86.729C308.881 86.7116 310.04 86.3054 311.577 85.2217C313.062 84.1742 314.57 82.7318 315.952 81.1888ZM323.539 81.5524C323.161 82.2755 322.79 83.2014 322.476 84.3171C321.918 86.2995 321.619 88.6104 321.697 90.8621C321.858 95.4933 323.466 98.5762 326.023 99.5807C326.325 98.5755 326.432 96.7125 326.194 94.0298C325.907 90.8016 325.186 87.0103 324.337 83.4329C324.095 82.7747 323.867 82.0963 323.652 81.3985C323.615 81.4496 323.577 81.5009 323.539 81.5524ZM330.218 81.662C331.962 86.245 334.314 89.1768 336.346 90.5589C337.779 91.5338 338.738 91.5546 339.191 91.4289C339.55 91.3294 340.254 90.9557 340.788 89.3579C341.04 88.6006 340.958 87.8172 340.289 86.7851C339.563 85.6657 338.247 84.4498 336.408 83.2332C334.411 81.912 332.047 80.7509 329.758 79.811C329.914 80.4168 330.067 81.035 330.218 81.662ZM331.71 72.4297C336.736 72.2721 339.919 70.6294 341.528 69.0218C342.642 67.9092 342.93 66.9247 342.93 66.402C342.93 66.0215 342.811 65.7472 342.325 65.5045C342.221 65.4525 341.72 65.2848 340.438 65.7825C339.204 66.2616 337.714 67.1865 336.088 68.4643C334.582 69.648 333.081 71.0371 331.71 72.4297ZM325.842 100.027C325.842 100.027 325.844 100.024 325.848 100.018Z" fill="white"/>
</g>
<g filter="url(#filter3_d_2108_1083)">
<path d="M147.565 143.638C152.927 143.638 159.331 146.465 166.778 152.118C174.225 157.474 178.395 162.83 179.289 168.185C179.586 170.268 179.735 172.202 179.735 173.987C179.735 187.376 173.182 201.807 160.076 217.279C146.969 232.453 132.224 245.396 115.841 256.107C90.5219 273.364 65.3515 281.993 40.33 281.993C30.2023 281.993 22.1597 280.654 16.2022 277.976C11.4362 275.596 17.3937 274.406 34.0747 274.406C52.245 274.406 75.7771 263.694 104.671 242.272C132.671 222.634 149.65 199.129 155.607 171.756C156.501 167.59 156.352 163.425 155.161 159.259C154.267 154.796 151.735 152.565 147.565 152.565C134.161 152.565 116.586 161.937 94.8411 180.682C85.607 188.418 76.075 198.831 66.2451 211.923C56.7131 225.015 51.9471 235.726 51.9471 244.057C51.9471 245.247 52.0961 246.586 52.3939 248.074C52.9897 249.264 52.5429 251.347 51.0535 254.322C47.1811 262.058 41.6705 261.612 34.5215 252.983C32.7342 248.52 31.8406 243.908 31.8406 239.148C31.8406 225.461 33.9257 211.03 38.096 195.856C36.9045 197.046 34.2236 200.765 30.0533 207.014C26.181 212.964 21.5639 218.915 16.2022 224.866C13.5213 227.841 11.4362 227.841 9.94681 224.866C9.64894 224.271 9.5 223.527 9.5 222.634C9.5 221.444 10.0957 220.105 11.2872 218.618C34.5215 189.757 48.0748 171.012 51.9471 162.383C57.3089 147.506 65.5004 128.167 76.5218 104.364C87.5431 80.2632 97.6709 61.0721 106.905 46.7904C125.969 16.7392 145.629 1.71362 165.884 1.71362C169.459 1.71362 173.182 2.15992 177.054 3.05252L185.991 6.17667C194.629 11.2348 198.948 17.7806 198.948 25.814C198.948 33.55 196.565 42.0298 191.799 51.2534C184.054 67.0228 167.374 86.9578 141.756 111.058C116.139 134.861 91.2666 155.094 67.1387 171.756C61.1812 182.467 56.5642 196.451 53.2876 213.708C64.3089 197.344 78.6069 181.574 96.1815 166.4C114.054 151.226 131.182 143.638 147.565 143.638ZM133.267 103.471C168.714 67.7667 186.437 41.2859 186.437 24.0288C186.437 16.888 183.757 13.3175 178.395 13.3175C174.225 13.3175 168.565 15.9954 161.416 21.351C130.735 44.8564 100.947 89.0405 72.0537 153.903C92.3091 140.514 112.714 123.703 133.267 103.471Z" fill="white"/>
<path d="M179.784 168.114L179.782 168.103C178.856 162.553 174.556 157.098 167.075 151.716C159.601 146.043 153.09 143.138 147.565 143.138C131.021 143.138 113.782 150.8 95.8579 166.019L95.8547 166.022C78.9713 180.599 65.099 195.732 54.2434 211.421C57.4693 195.343 61.8983 182.241 67.5191 172.101C91.64 155.435 116.499 135.209 142.097 111.424L142.099 111.422C167.722 87.3161 184.458 67.3322 192.245 51.479C197.035 42.2091 199.448 33.6513 199.448 25.814C199.448 17.5575 194.991 10.8673 186.243 5.74519L186.201 5.72068L186.156 5.70468L177.219 2.58053L177.194 2.57146L177.167 2.56529C173.262 1.66514 169.5 1.21362 165.884 1.21362C145.36 1.21362 125.57 16.4352 106.484 46.521C97.2319 60.8305 87.0935 80.0443 76.0678 104.154C65.0483 127.953 56.8521 147.302 51.4832 162.196C49.5664 166.459 45.2407 173.26 38.4727 182.62C31.7032 191.983 22.5123 203.877 10.8978 218.304L10.897 218.305C9.67431 219.832 9 221.28 9 222.634C9 223.579 9.15726 224.406 9.4997 225.09C10.2743 226.637 11.2984 227.597 12.6277 227.597C13.8974 227.597 15.2169 226.706 16.5736 225.201C21.95 219.234 26.583 213.263 30.4709 207.289C32.5538 204.168 34.2622 201.683 35.5973 199.83C36.1384 199.08 36.6151 198.437 37.0283 197.901C33.238 212.318 31.3406 226.067 31.3406 239.148C31.3406 243.972 32.2466 248.647 34.0573 253.169L34.0864 253.242L34.1364 253.302C37.7206 257.628 41.0013 260.047 43.9759 260.288C47.0394 260.536 49.5319 258.479 51.5006 254.546C52.2549 253.039 52.7588 251.732 52.9945 250.633C53.2217 249.574 53.2131 248.646 52.8719 247.914C52.5871 246.475 52.4471 245.19 52.4471 244.057C52.4471 235.893 57.1293 225.293 66.6475 212.22C76.461 199.15 85.9665 188.769 95.1622 181.065L95.1675 181.06C106.023 171.703 115.822 164.698 124.566 160.035C133.313 155.37 140.975 153.065 147.565 153.065C149.558 153.065 151.106 153.596 152.261 154.613C153.42 155.635 154.238 157.196 154.67 159.357L154.674 159.377L154.68 159.397C155.849 163.484 155.995 167.566 155.119 171.649C149.194 198.874 132.305 222.28 104.384 241.862L104.384 241.862L104.373 241.87C75.4946 263.281 52.0744 273.906 34.0747 273.906C25.7393 273.906 20.0321 274.202 16.9979 274.808C16.2375 274.96 15.6178 275.136 15.1577 275.345C14.7251 275.541 14.3088 275.822 14.164 276.256C13.9997 276.748 14.2527 277.182 14.5642 277.493C14.882 277.81 15.3672 278.118 15.9788 278.423L15.9879 278.428L15.9972 278.432C22.0448 281.15 30.1665 282.493 40.33 282.493C65.4713 282.493 90.7368 273.822 116.119 256.523C132.54 245.786 147.319 232.813 160.454 217.606L160.457 217.602C173.602 202.084 180.235 187.542 180.235 173.987C180.235 172.174 180.084 170.217 179.784 168.114ZM185.938 24.0288C185.938 32.505 181.576 43.3362 172.729 56.5541C163.893 69.7567 150.625 85.2766 132.914 103.117C112.866 122.851 92.9662 139.322 73.2142 152.531C101.877 88.5533 131.387 44.9881 161.718 21.7499C168.859 16.4001 174.402 13.8175 178.395 13.8175C180.954 13.8175 182.8 14.662 184.027 16.2956C185.274 17.9561 185.938 20.5066 185.938 24.0288Z" stroke="white"/>
</g>
<defs>
<filter id="filter0_d_2108_1083" x="312.669" y="94.0288" width="28.2632" height="30.249" filterUnits="userSpaceOnUse" color-interpolation-filters="sRGB">
<feFlood flood-opacity="0" result="BackgroundImageFix"/>
<feColorMatrix in="SourceAlpha" type="matrix" values="0 0 0 0 0 0 0 0 0 0 0 0 0 0 0 0 0 0 127 0" result="hardAlpha"/>
<feOffset dy="10"/>
<feGaussianBlur stdDeviation="4"/>
<feComposite in2="hardAlpha" operator="out"/>
<feColorMatrix type="matrix" values="0 0 0 0 0.0677083 0 0 0 0 0.222083 0 0 0 0 0.270833 0 0 0 0.75 0"/>
<feBlend mode="normal" in2="BackgroundImageFix" result="effect1_dropShadow_2108_1083"/>
<feBlend mode="normal" in="SourceGraphic" in2="effect1_dropShadow_2108_1083" result="shape"/>
</filter>
<filter id="filter1_d_2108_1083" x="187.108" y="70.5728" width="607.357" height="225.42" filterUnits="userSpaceOnUse" color-interpolation-filters="sRGB">
<feFlood flood-opacity="0" result="BackgroundImageFix"/>
<feColorMatrix in="SourceAlpha" type="matrix" values="0 0 0 0 0 0 0 0 0 0 0 0 0 0 0 0 0 0 127 0" result="hardAlpha"/>
<feOffset dy="10"/>
<feGaussianBlur stdDeviation="2"/>
<feComposite in2="hardAlpha" operator="out"/>
<feColorMatrix type="matrix" values="0 0 0 0 0.133333 0 0 0 0 0.14902 0 0 0 0 0.203922 0 0 0 0.75 0"/>
<feBlend mode="normal" in2="BackgroundImageFix" result="effect1_dropShadow_2108_1083"/>
<feBlend mode="normal" in="SourceGraphic" in2="effect1_dropShadow_2108_1083" result="shape"/>
</filter>
<filter id="filter2_d_2108_1083" x="291.14" y="50.2617" width="65.9208" height="73.5876" filterUnits="userSpaceOnUse" color-interpolation-filters="sRGB">
<feFlood flood-opacity="0" result="BackgroundImageFix"/>
<feColorMatrix in="SourceAlpha" type="matrix" values="0 0 0 0 0 0 0 0 0 0 0 0 0 0 0 0 0 0 127 0" result="hardAlpha"/>
<feOffset dy="10"/>
<feGaussianBlur stdDeviation="4"/>
<feComposite in2="hardAlpha" operator="out"/>
<feColorMatrix type="matrix" values="0 0 0 0 0.0677083 0 0 0 0 0.222083 0 0 0 0 0.270833 0 0 0 0.75 0"/>
<feBlend mode="normal" in2="BackgroundImageFix" result="effect1_dropShadow_2108_1083"/>
<feBlend mode="normal" in="SourceGraphic" in2="effect1_dropShadow_2108_1083" result="shape"/>
</filter>
<filter id="filter3_d_2108_1083" x="0.5" y="0.713623" width="207.448" height="300.279" filterUnits="userSpaceOnUse" color-interpolation-filters="sRGB">
<feFlood flood-opacity="0" result="BackgroundImageFix"/>
<feColorMatrix in="SourceAlpha" type="matrix" values="0 0 0 0 0 0 0 0 0 0 0 0 0 0 0 0 0 0 127 0" result="hardAlpha"/>
<feOffset dy="10"/>
<feGaussianBlur stdDeviation="4"/>
<feComposite in2="hardAlpha" operator="out"/>
<feColorMatrix type="matrix" values="0 0 0 0 0.13526 0 0 0 0 0.15042 0 0 0 0 0.204167 0 0 0 0.75 0"/>
<feBlend mode="normal" in2="BackgroundImageFix" result="effect1_dropShadow_2108_1083"/>
<feBlend mode="normal" in="SourceGraphic" in2="effect1_dropShadow_2108_1083" result="shape"/>
</filter>
</defs>
</svg>
