<svg width="332" height="119" viewBox="0 0 332 119" fill="none" xmlns="http://www.w3.org/2000/svg">
  <path
    d="M6.35353 69.5C1.35803 53.9584 8.35329 20 18.2593 3C18.7325 9.10395 0.905527 45.2719 21.7251 73.1309C34.1976 89.8206 43.859 79.4957 44.7528 73.1309C48.2178 82.6276 42.0176 87.7292 37.079 89.0951C21.7251 93.3418 10.8535 83.5 6.35353 69.5Z"
    fill="url(#paint0_diamond)" />
  <path
    d="M25.8255 37.8253C22.7195 37.655 18.491 36.1217 25.2317 31.2019C29.6743 27.6116 46.2551 22.2874 56.7596 31.2019C67.2642 40.1165 67 48.6121 67 53.9999C67 62.2931 64.7596 71 56.7596 79.5C48.1969 88.5979 38.8618 90.4724 35.3844 90.4999C36.9709 90.4874 50.9453 85.7858 55 71.9999C57.2059 64.4999 58.5 55.4999 48.1969 52.6501L48.1419 52.6349C45.08 51.7876 37.8956 49.7996 31.3371 57.8565C29.9448 58.8165 27.1687 60.0791 27.202 57.4486C27.2354 54.8182 32.6708 51.1424 35.3844 49.6333L31.5092 49.9352C33.3515 47.9725 37.5977 44.3348 40.6952 44.4632C37.2774 44.1648 30.1049 45.8172 24.2251 54.7607C23.0888 56.2685 20.6602 58.8585 20.0366 57.1551C19.4129 55.4518 19.8911 54.49 20.2082 54.2219C21.1535 53.175 23.168 51.1932 23.6642 51.6412C24.2844 52.2012 22.2762 49.4378 24.6453 47.0634C26.5405 45.1638 23.9147 46.9581 22.365 48.0926C20.4587 49.5388 16.6783 51.7474 16.8061 49.0122C16.934 46.2771 19.0258 43.8107 20.0557 42.9195C21.715 41.2337 24.9735 38.0822 25.8255 37.8253Z"
    fill="url(#paint1_linear)" />
  <path
    d="M92.0942 88.3367C89.4904 88.3367 86.5499 88.1122 83.2727 87.6633C81.477 87.4388 80.2424 86.9675 79.569 86.2492C78.8956 85.5309 78.6038 84.3636 78.6936 82.7475C79.0078 78.303 79.7486 72.8261 80.9158 66.3165C82.083 59.7621 83.4972 53.4546 85.1582 47.394C85.4725 46.2716 86.101 45.486 87.0437 45.0371C87.9865 44.5881 89.2211 44.3637 90.7474 44.3637C93.4859 44.3637 94.8552 45.1269 94.8552 46.6532C94.8552 47.2817 94.7205 48 94.4511 48.8081C93.2839 52.3996 92.1167 57.2256 90.9495 63.2862C89.7822 69.3019 88.9517 75.0483 88.4579 80.5253C89.8047 80.6599 91.331 80.7273 93.037 80.7273C100.893 80.7273 106.752 78.3479 110.613 73.5892C114.518 68.8305 116.471 62.4781 116.471 54.532C116.471 49.1897 114.945 45.0595 111.892 42.1415C108.839 39.2234 104.53 37.7644 98.9629 37.7644C95.3714 37.7644 91.8024 38.3255 88.2559 39.4479C84.7542 40.5702 81.5892 42.0517 78.7609 43.8923C78.1773 44.2963 77.5488 44.4984 76.8754 44.4984C76.1122 44.4984 75.5061 44.1841 75.0572 43.5556C74.6083 42.8822 74.3838 42.0741 74.3838 41.1314C74.3838 40.0539 74.5634 39.1785 74.9225 38.5051C75.2817 37.7868 75.8877 37.1359 76.7407 36.5522C79.8384 34.4423 83.4747 32.8485 87.6498 31.7711C91.8249 30.6488 95.8428 30.0876 99.7037 30.0876C105.181 30.0876 109.917 31.0528 113.912 32.9832C117.908 34.8687 120.983 37.6521 123.138 41.3334C125.293 45.0146 126.37 49.4591 126.37 54.6667C126.37 61.4456 125.023 67.3715 122.33 72.4445C119.636 77.4725 115.708 81.3782 110.545 84.1616C105.383 86.945 99.2323 88.3367 92.0942 88.3367ZM160.912 72.9832C161.495 72.9832 161.944 73.2525 162.258 73.7913C162.617 74.33 162.797 75.0707 162.797 76.0135C162.797 77.8092 162.371 79.2009 161.518 80.1886C159.857 82.2088 157.5 84.0718 154.447 85.7778C151.439 87.4837 148.207 88.3367 144.75 88.3367C140.036 88.3367 136.377 87.0572 133.773 84.4983C131.17 81.9394 129.868 78.4377 129.868 73.9933C129.868 70.8956 130.519 68.0225 131.821 65.3738C133.123 62.6802 134.918 60.5477 137.208 58.9765C139.542 57.4052 142.169 56.6196 145.087 56.6196C147.69 56.6196 149.778 57.4052 151.349 58.9765C152.92 60.5028 153.706 62.5904 153.706 65.2391C153.706 68.3367 152.584 71.0079 150.339 73.2525C148.139 75.4523 144.391 77.2032 139.093 78.5051C140.216 80.5702 142.348 81.6027 145.491 81.6027C147.511 81.6027 149.8 80.9069 152.359 79.5152C154.963 78.0786 157.208 76.2155 159.093 73.9259C159.632 73.2974 160.238 72.9832 160.912 72.9832ZM143.942 63.2189C142.281 63.2189 140.867 64.1841 139.699 66.1145C138.577 68.0449 138.016 70.3794 138.016 73.1179V73.2525C140.665 72.624 142.752 71.6813 144.279 70.4243C145.805 69.1672 146.568 67.7082 146.568 66.0472C146.568 65.1942 146.321 64.5208 145.827 64.027C145.378 63.4882 144.75 63.2189 143.942 63.2189ZM169.839 89.8182C167.505 89.8182 165.709 89.2795 164.452 88.202C163.24 87.1246 162.634 85.9125 162.634 84.5657C162.634 83.3984 163.06 82.3883 163.913 81.5354C164.766 80.6824 166.023 80.2559 167.684 80.2559C168.268 80.2559 168.941 80.3232 169.705 80.4579C170.513 80.5477 171.119 80.615 171.523 80.6599C171.478 79.4927 171.209 78.3928 170.715 77.3603C170.266 76.3277 169.682 75.3401 168.964 74.3973C168.246 73.4097 167.572 72.5567 166.944 71.8384C165.552 74.4871 164.16 76.6869 162.769 78.4377C161.422 80.1886 159.94 81.8496 158.324 83.4209C157.516 84.229 156.663 84.633 155.765 84.633C155.047 84.633 154.463 84.3861 154.014 83.8923C153.565 83.3535 153.341 82.7026 153.341 81.9394C153.341 81.0415 153.655 80.211 154.284 79.4478L155.159 78.3704C157.628 75.3176 159.491 72.8036 160.748 70.8283C161.512 69.5264 162.409 67.798 163.442 65.6431C164.475 63.4433 165.485 61.1762 166.472 58.8418C167.325 56.8665 169.099 55.8788 171.792 55.8788C173.049 55.8788 173.925 55.9911 174.418 56.2155C174.912 56.44 175.159 56.7991 175.159 57.293C175.159 57.5623 175.069 57.9888 174.89 58.5724C174.71 59.156 174.463 59.7396 174.149 60.3233C173.341 61.9394 172.937 63.3087 172.937 64.431C172.937 65.1044 173.161 65.8451 173.61 66.6532C174.104 67.4613 174.845 68.4714 175.833 69.6835C177.269 71.569 178.347 73.1852 179.065 74.532C179.828 75.8339 180.21 77.2705 180.21 78.8418C180.21 79.2907 180.165 79.9192 180.075 80.7273C182.275 79.8743 184.856 77.6072 187.819 73.9259C188.358 73.2974 188.964 72.9832 189.637 72.9832C190.221 72.9832 190.67 73.2525 190.984 73.7913C191.343 74.33 191.523 75.0707 191.523 76.0135C191.523 77.7194 191.096 79.1111 190.243 80.1886C187.999 82.9719 185.844 84.8799 183.779 85.9125C181.758 86.9001 179.244 87.4388 176.237 87.5286C174.441 89.055 172.308 89.8182 169.839 89.8182ZM194.873 52.1751C192.988 52.1751 191.574 51.7486 190.631 50.8957C189.688 49.9978 189.217 48.7632 189.217 47.192C189.217 45.6207 189.823 44.3188 191.035 43.2862C192.292 42.2088 193.841 41.6701 195.682 41.6701C197.343 41.6701 198.689 42.0741 199.722 42.8822C200.755 43.6903 201.271 44.8351 201.271 46.3165C201.271 48.1123 200.687 49.5489 199.52 50.6263C198.353 51.6588 196.804 52.1751 194.873 52.1751ZM194.335 88.3367C191.417 88.3367 189.284 87.3042 187.937 85.2391C186.636 83.174 185.985 80.4355 185.985 77.0236C185.985 75.0034 186.232 72.422 186.725 69.2795C187.264 66.0921 187.937 63.1291 188.746 60.3906C189.15 58.954 189.688 57.9664 190.362 57.4276C191.035 56.8889 192.113 56.6196 193.594 56.6196C195.884 56.6196 197.028 57.3827 197.028 58.9091C197.028 60.0315 196.602 62.6353 195.749 66.7206C194.671 71.6588 194.133 75.0034 194.133 76.7542C194.133 78.101 194.312 79.1336 194.671 79.8519C195.031 80.5702 195.637 80.9293 196.49 80.9293C197.298 80.9293 198.308 80.3681 199.52 79.2458C200.732 78.1235 202.348 76.3502 204.368 73.9259C204.907 73.2974 205.513 72.9832 206.187 72.9832C206.77 72.9832 207.219 73.2525 207.533 73.7913C207.893 74.33 208.072 75.0707 208.072 76.0135C208.072 77.8092 207.646 79.2009 206.793 80.1886C202.348 85.6207 198.196 88.3367 194.335 88.3367ZM237.102 73.1179C237.686 73.1179 238.135 73.4097 238.449 73.9933C238.808 74.532 238.987 75.2278 238.987 76.0808C238.987 77.1134 238.83 77.9214 238.516 78.5051C238.202 79.0887 237.708 79.6049 237.035 80.0539C233.174 82.6577 230.346 84.5881 228.55 85.8451L224.24 88.7407C222.534 98.0337 220.289 105.329 217.506 110.626C214.768 115.969 211.266 118.64 207.001 118.64C204.711 118.64 202.848 117.921 201.412 116.485C199.975 115.093 199.257 113.252 199.257 110.963C199.257 107.776 200.514 104.341 203.028 100.66C205.542 97.0236 210.256 92.5342 217.169 87.1919L217.573 84.5657C216.81 85.7778 215.8 86.7205 214.543 87.3939C213.331 88.0224 212.119 88.3367 210.907 88.3367C208.123 88.3367 205.901 87.3266 204.24 85.3064C202.579 83.2862 201.748 80.6375 201.748 77.3603C201.748 73.7688 202.579 70.3794 204.24 67.1919C205.901 63.9596 208.101 61.3783 210.839 59.4478C213.623 57.4725 216.563 56.4849 219.661 56.4849C220.649 56.4849 221.3 56.6869 221.614 57.0909C221.973 57.4501 222.265 58.1235 222.489 59.1111C223.342 58.9316 224.33 58.8418 225.452 58.8418C226.574 58.8418 227.36 59.0214 227.809 59.3805C228.303 59.6948 228.55 60.3457 228.55 61.3334C228.55 61.8721 228.527 62.2986 228.482 62.6128C228.303 64.0045 227.742 67.5286 226.799 73.1852C226.619 74.2626 226.417 75.4523 226.193 76.7542C226.013 78.0112 225.811 79.358 225.587 80.7946C229.044 78.101 232.366 75.7217 235.553 73.6566C236.137 73.2974 236.653 73.1179 237.102 73.1179ZM213.331 81.5354C214.363 81.5354 215.351 80.9069 216.294 79.6498C217.237 78.3928 217.91 76.5971 218.314 74.2626L220.469 62.7475C218.628 62.7924 216.922 63.5107 215.351 64.9024C213.78 66.2492 212.523 68.0449 211.58 70.2896C210.637 72.5342 210.166 74.9136 210.166 77.4276C210.166 78.8193 210.435 79.8519 210.974 80.5253C211.558 81.1987 212.343 81.5354 213.331 81.5354ZM207.742 112.108C208.864 112.108 210.121 110.761 211.513 108.067C212.949 105.374 214.319 101.086 215.621 95.2054C212.164 98.1683 209.672 100.839 208.146 103.219C206.619 105.598 205.856 107.686 205.856 109.481C205.856 110.245 205.991 110.873 206.26 111.367C206.575 111.861 207.068 112.108 207.742 112.108ZM238.905 88.3367C237.199 88.3367 235.987 87.4388 235.269 85.6431C234.595 83.8474 234.258 80.9742 234.258 77.0236C234.258 71.1874 235.089 65.6431 236.75 60.3906C237.154 59.0887 237.805 58.1459 238.703 57.5623C239.646 56.9338 240.948 56.6196 242.609 56.6196C243.506 56.6196 244.135 56.7318 244.494 56.9563C244.853 57.1807 245.033 57.6072 245.033 58.2357C245.033 58.954 244.696 60.5702 244.023 63.0842C243.574 64.8799 243.215 66.4512 242.945 67.798C242.676 69.1448 242.451 70.8059 242.272 72.7812C243.753 68.9203 245.414 65.7778 247.255 63.3536C249.096 60.9293 250.891 59.2009 252.642 58.1684C254.438 57.1358 256.077 56.6196 257.558 56.6196C260.476 56.6196 261.935 58.0786 261.935 60.9967C261.935 62.7475 261.441 65.9125 260.454 70.4916C259.601 74.3973 259.174 76.9787 259.174 78.2357C259.174 80.0314 259.825 80.9293 261.127 80.9293C262.025 80.9293 263.08 80.3906 264.292 79.3131C265.549 78.1908 267.21 76.3951 269.275 73.9259C269.814 73.2974 270.42 72.9832 271.093 72.9832C271.677 72.9832 272.126 73.2525 272.44 73.7913C272.799 74.33 272.979 75.0707 272.979 76.0135C272.979 77.8092 272.552 79.2009 271.699 80.1886C269.769 82.5679 267.682 84.5208 265.437 86.0471C263.237 87.5735 260.723 88.3367 257.895 88.3367C255.605 88.3367 253.877 87.6857 252.71 86.3838C251.542 85.037 250.959 83.1066 250.959 80.5926C250.959 79.3356 251.273 77.0909 251.902 73.8586C252.485 71.0303 252.777 69.0775 252.777 68C252.777 67.2817 252.53 66.9226 252.036 66.9226C251.453 66.9226 250.622 67.6858 249.545 69.2121C248.512 70.6936 247.435 72.6689 246.312 75.1381C245.235 77.6072 244.359 80.211 243.686 82.9495C243.192 85.0595 242.609 86.4961 241.935 87.2593C241.307 87.9776 240.297 88.3367 238.905 88.3367ZM297.564 72.9832C298.148 72.9832 298.597 73.2525 298.911 73.7913C299.27 74.33 299.45 75.0707 299.45 76.0135C299.45 77.8092 299.023 79.2009 298.17 80.1886C296.509 82.2088 294.152 84.0718 291.1 85.7778C288.092 87.4837 284.86 88.3367 281.403 88.3367C276.689 88.3367 273.03 87.0572 270.426 84.4983C267.823 81.9394 266.521 78.4377 266.521 73.9933C266.521 70.8956 267.172 68.0225 268.473 65.3738C269.775 62.6802 271.571 60.5477 273.861 58.9765C276.195 57.4052 278.821 56.6196 281.739 56.6196C284.343 56.6196 286.431 57.4052 288.002 58.9765C289.573 60.5028 290.359 62.5904 290.359 65.2391C290.359 68.3367 289.237 71.0079 286.992 73.2525C284.792 75.4523 281.044 77.2032 275.746 78.5051C276.869 80.5702 279.001 81.6027 282.143 81.6027C284.164 81.6027 286.453 80.9069 289.012 79.5152C291.616 78.0786 293.861 76.2155 295.746 73.9259C296.285 73.2974 296.891 72.9832 297.564 72.9832ZM280.595 63.2189C278.934 63.2189 277.519 64.1841 276.352 66.1145C275.23 68.0449 274.669 70.3794 274.669 73.1179V73.2525C277.317 72.624 279.405 71.6813 280.931 70.4243C282.458 69.1672 283.221 67.7082 283.221 66.0472C283.221 65.1942 282.974 64.5208 282.48 64.027C282.031 63.4882 281.403 63.2189 280.595 63.2189ZM318.15 72.9832C318.644 76.6644 319.362 80.3008 320.305 83.8923C320.484 84.4759 320.574 85.0819 320.574 85.7104C320.574 87.7306 319.34 88.7407 316.87 88.7407C315.479 88.7407 314.401 88.3591 313.638 87.596C312.92 86.8328 312.246 85.3962 311.618 83.2862L311.551 83.0168C309.845 85.1268 308.296 86.541 306.904 87.2593C305.557 87.9776 303.986 88.3367 302.19 88.3367C299.452 88.3367 297.185 87.3266 295.389 85.3064C293.638 83.2413 292.763 80.5702 292.763 77.2929C292.763 73.7015 293.526 70.3794 295.052 67.3266C296.579 64.2739 298.666 61.7823 301.315 59.8519C303.964 57.8766 306.927 56.6869 310.204 56.2829C311.057 47.798 312.673 40.4131 315.052 34.128C317.476 27.8429 320.686 24.7004 324.682 24.7004C326.612 24.7004 328.206 25.5758 329.463 27.3267C330.765 29.0775 331.416 31.7262 331.416 35.2728C331.416 40.211 330.204 45.9798 327.779 52.5792C325.355 59.1785 322.145 65.9798 318.15 72.9832ZM323.941 31.2997C322.639 31.2997 321.405 34.6218 320.237 41.266C319.115 47.9103 318.352 55.1381 317.948 62.9495C322.931 52.1751 325.423 43.4209 325.423 36.6869C325.423 34.981 325.265 33.6566 324.951 32.7139C324.682 31.7711 324.345 31.2997 323.941 31.2997ZM304.547 81.5354C305.445 81.5354 306.298 81.1987 307.106 80.5253C307.959 79.8519 309.037 78.55 310.338 76.6195C309.889 73.3423 309.665 69.9529 309.665 66.4512C309.665 65.0595 309.687 63.9821 309.732 63.2189C307.263 63.9372 305.221 65.5758 303.604 68.1347C301.988 70.6936 301.18 73.5219 301.18 76.6195C301.18 79.8968 302.303 81.5354 304.547 81.5354Z"
    fill="url(#paint2_diamond)" />
  <defs>
    <radialGradient id="paint0_diamond" cx="0" cy="0" r="1" gradientUnits="userSpaceOnUse"
      gradientTransform="translate(8.05466 16.9256) rotate(64.5408) scale(87.7129 94.8775)">
      <stop stop-color="#00E0FF" />
      <stop offset="0.2" stop-color="#0EC9EC" />
      <stop offset="0.4" stop-color="#15B3D9" />
      <stop offset="0.6" stop-color="#189EC6" />
      <stop offset="0.8" stop-color="#1889B3" />
      <stop offset="1" stop-color="#1774A1" />
    </radialGradient>
    <linearGradient id="paint1_linear" x1="17.2098" y1="39.4913" x2="60.9878" y2="79.0189"
      gradientUnits="userSpaceOnUse">
      <stop stop-color="white" />
      <stop offset="0.0989583" stop-color="#E1F9FF" />
      <stop offset="0.197917" stop-color="#C0F3FF" />
      <stop offset="0.296875" stop-color="#9BEDFF" />
      <stop offset="0.395833" stop-color="#6DE7FF" />
      <stop offset="0.494792" stop-color="#00E0FF" />
      <stop offset="0.494792" stop-color="#00E0FF" />
      <stop offset="0.595833" stop-color="#18C2E5" />
      <stop offset="0.696875" stop-color="#20A4CC" />
      <stop offset="0.797917" stop-color="#2288B4" />
      <stop offset="0.898958" stop-color="#216C9B" />
      <stop offset="1" stop-color="#1D5284" />
    </linearGradient>
    <radialGradient id="paint2_diamond" cx="0" cy="0" r="1" gradientUnits="userSpaceOnUse"
      gradientTransform="translate(118.791 18.7751) rotate(22.099) scale(400.642 456.744)">
      <stop stop-color="#26E5FF" />
      <stop offset="0.2" stop-color="#26CCEA" />
      <stop offset="0.4" stop-color="#24B3D6" />
    </radialGradient>
  </defs>
</svg>